<?xml version="1.0" encoding="utf-8"?>
<!-- Generator: Adobe Illustrator 27.2.0, SVG Export Plug-In . SVG Version: 6.00 Build 0)  -->
<svg version="1.1" xmlns="http://www.w3.org/2000/svg" xmlns:xlink="http://www.w3.org/1999/xlink" x="0px" y="0px"
	 viewBox="0 0 273.8 280" style="enable-background:new 0 0 273.8 280;" xml:space="preserve">
<g id="Layer_1_xA0_Image_00000163052345909062637470000013736011313462835383_">
	<g>
		<g>
			<path d="M52.1,63.8c4.1-6.7,10.3-12,17.7-14.8c1.5-0.6,0.8-3-0.7-2.4c-7.9,3.1-14.7,8.7-19.2,16C49.1,63.9,51.2,65.2,52.1,63.8
				L52.1,63.8z"/>
		</g>
	</g>
	<g>
		<g>
			<path d="M71.2,47.4c-1.6-11.2,6.2-21.5,15.5-26.7c10.8-6,23.9-7.2,36.1-7.3c6.7,0,13.5,0.4,20.2,0.9c6.4,0.5,12.8,1.1,19.2,1.9
				c5.9,0.8,12,1.9,17.4,4.6c2.9,1.4,5.5,3.2,8,5.1c2.3,1.8,4.7,3.6,6.9,5.6c2.5,2.3,4.4,4.9,5.8,7.9c1.4,3,2.7,6.1,4.4,9.1
				c3.2,5.6,7.4,10.7,12.2,15.1c1.2,1.1,3-0.7,1.8-1.8c-4.6-4.1-8.5-8.9-11.6-14.2c-3.1-5.3-4.7-11.4-8.9-15.9
				c-2.1-2.3-4.5-4.1-6.9-6c-2.6-2.1-5.2-4.1-8.1-5.8c-5.4-3.1-11.5-4.7-17.6-5.7c-6.5-1-13.1-1.5-19.7-2.1
				c-7-0.6-14.1-1.1-21.1-1.2c-12.6-0.1-26.1,1-37.6,6.7C75.9,23.3,66.9,34.9,68.8,48C69,49.6,71.4,48.9,71.2,47.4L71.2,47.4z"/>
		</g>
	</g>
	<g>
		<g>
			<path d="M216.4,62.3c-4.9,4.3-10,8.4-15.3,12.2c-2.4,1.7-4.9,3.9-7.8,4.8c-2.8,0.8-4.8-0.8-6.5-2.9c-1.7-2.2-3.1-4.7-4.8-6.9
				c-1.8-2.4-3.6-4.7-5.6-6.9c-1.9-2.2-3.9-4.3-6.1-6.4c-1.1-1-2.1-2-3.2-3c-0.9-0.8-2-2-3.2-2.4c-1.5-0.5-3,0.5-4.3,1
				c-1.6,0.6-3.3,1.1-5,1.5c-3.4,0.8-6.9,1-10.4,0.7c-1.6-0.1-1.6,2.4,0,2.5c3.1,0.2,6.2,0.1,9.3-0.4c1.5-0.3,3-0.6,4.4-1
				c1.5-0.5,3-1.3,4.5-1.7c1.3-0.4,2.6,1.4,3.6,2.2c1.2,1.1,2.4,2.2,3.5,3.3c2.2,2.2,4.3,4.4,6.3,6.8c2,2.3,3.8,4.8,5.5,7.3
				c1.5,2.1,2.8,4.5,4.6,6.4c1.8,1.9,4.1,3,6.7,2.6c3-0.4,5.6-2.4,8-4.2c6-4.3,11.8-8.8,17.4-13.7C219.4,63,217.6,61.2,216.4,62.3
				L216.4,62.3z"/>
		</g>
	</g>
	<g>
		<g>
			<path d="M164.8,51.5c0.3-1.2,1-2.1,1.5-3.2c0.5-1.1,0.8-2.3,0.9-3.5c0.1-2.3-0.5-4.8-1.2-7c-1.4-4.4-3.8-8.4-7-11.7
				c-1.5-1.6-3.4-3.5-5.8-3.5c-1.2,0-2.3,0.5-3.3,1c-1.3,0.7-2.7,1.3-4,2c-1.1,0.6-2.2,1.3-3.4,1.6c-1.5,0.5-2.9-0.3-4.3-0.6
				c-2.6-0.6-5.3-0.6-8-0.3c-1.5,0.1-3,0.4-4.5,0.6c-1.5,0.2-3.2,0.9-4.6,0.1c-1.2-0.7-2.4-1.7-3.5-2.6c-1.3-1-2.7-2-4-3
				c-0.2,0.8-0.4,1.6-0.6,2.3c7-0.5,13.9-1,20.9-1.3c6.5-0.3,13.3-0.7,19.6,1.7c1.5,0.6,2.2-1.8,0.7-2.4c-6.3-2.4-13.2-2-19.7-1.8
				c-7.1,0.3-14.3,0.8-21.4,1.3c-1.3,0.1-1.6,1.6-0.6,2.3c2.2,1.6,4.3,3.2,6.5,4.8c0.9,0.7,1.7,1.3,2.9,1.5c1.2,0.2,2.4-0.1,3.5-0.3
				c2.6-0.4,5.2-0.8,7.8-0.9c1.3,0,2.6,0,3.8,0.3c1.3,0.2,2.6,0.8,3.9,0.9c2.4,0.3,4.6-1.2,6.6-2.2c1.1-0.6,2.2-1.1,3.3-1.7
				c1.3-0.7,2.4-1.2,3.8-0.5c1.9,1.1,3.5,3.1,4.8,4.8c1.3,1.7,2.4,3.7,3.3,5.7c1,2.4,1.7,4.9,2,7.5c0.1,1.4,0,2.7-0.7,3.9
				c-0.6,1.1-1.3,2.2-1.6,3.4C162.1,52.4,164.5,53.1,164.8,51.5L164.8,51.5z"/>
		</g>
	</g>
	<g>
		<g>
			<path d="M113.5,21.1c-6.4,2.2-11.2,7.8-12.1,14.5c-0.9,7,2.4,14.2,8.5,17.8c3.4,2,7.3,2.9,11.2,2.4c1.6-0.2,1.6-2.7,0-2.5
				c-8,0.9-15.4-4.3-17.1-12.2c-1.6-7.5,2.9-15.2,10.1-17.7C115.7,23,115.1,20.6,113.5,21.1L113.5,21.1z"/>
		</g>
	</g>
	<g>
		<g>
			<path d="M50.4,64.3c1.5,1.8,3.6,2.9,5.8,3.8c2.5,1.1,5,2.2,7.4,3.6c4.9,2.9,9.4,6.4,13.8,9.9c0.5,0.4,1.3,0.5,1.8,0
				c2.4-2.4,3.8-5.6,5.6-8.4c1.8-3,3.8-5.9,5.9-8.7c4.1-5.7,8.8-11,13.7-15.9c1.1-1.1-0.6-2.9-1.8-1.8C97.6,51.7,93.1,57,89,62.6
				c-2,2.7-4,5.6-5.8,8.4c-1.8,2.9-3.3,6.3-5.8,8.8c0.6,0,1.2,0,1.8,0c-4.4-3.5-8.8-7-13.6-9.8c-2.3-1.4-4.7-2.6-7.2-3.6
				c-2.3-1-4.7-1.8-6.3-3.8C51.1,61.3,49.4,63.1,50.4,64.3L50.4,64.3z"/>
		</g>
	</g>
	<g>
		<g>
			<path d="M124,29c-0.3,29.2-0.6,58.4-0.8,87.6c-0.2,29.2-0.3,58.5-0.2,87.7c0,16.5,0,32.9,0.1,49.4c0,1.6,2.5,1.6,2.5,0
				c-0.1-29.3-0.1-58.5-0.1-87.8c0.1-29.2,0.2-58.5,0.5-87.7c0.1-16.4,0.3-32.8,0.5-49.3C126.5,27.4,124,27.4,124,29L124,29z"/>
		</g>
	</g>
	<g>
		<g>
			<path d="M140.7,28.7c0.1,14.7,0.1,29.3,0.2,44c0.1,14.5,0.2,29-0.1,43.5c-0.3,14.4-0.6,28.7-0.7,43.1
				c-0.1,14.6-0.1,29.2-0.1,43.7c0,16.4-0.1,32.9-0.1,49.3c0,1.6,2.5,1.6,2.5,0c0.1-29.2,0.2-58.4,0.3-87.6
				c0-14.4,0.2-28.8,0.6-43.1c0.4-14.5,0.3-28.9,0.3-43.4c-0.1-16.5-0.2-33-0.2-49.5C143.2,27.1,140.7,27.1,140.7,28.7L140.7,28.7z"
				/>
		</g>
	</g>
	<g>
		<g>
			<path d="M53.8,66c-4.4,3.5-8,7.8-10.9,12.6c-3.2,5.2-6.2,10.6-9.2,16c-2.8,5.1-5.3,10.4-7.2,16c-1,2.8-1.8,5.6-2.5,8.4
				c-0.7,2.8-1.2,5.5-0.5,8.4c0.3,1.4,0.9,2.8,1.4,4.1c0.4,1.1,0.7,2.9,1.6,3.7c0.9,0.8,2.2,0.5,3.4,0.4c1.6-0.1,3.3-0.1,4.9,0
				c6,0.3,11.9,2.1,17.9,2.5c1.4,0.1,2.8,0.1,4.2-0.1c1.2-0.1,2.7-0.2,3.8-0.9c0.9-0.6,1.6-1.8,2.1-2.8c0.7-1.3,1.1-2.6,1.1-4
				c0-3-0.9-6.1-1.4-9c-0.6-3.1-1.3-6.3-2-9.4c-1.5-6.8-3.2-13.5-4.8-20.3c-1.6-6.5-2.8-13.3-5.7-19.4c-0.7-1.5-2.8-0.2-2.2,1.3
				c2.3,5,3.4,10.5,4.7,15.8c1.4,5.6,2.8,11.2,4.1,16.9c1.3,5.6,2.6,11.2,3.7,16.8c0.3,1.4,0.5,2.7,0.8,4.1c0.3,1.5,0.6,3.1,0.3,4.5
				c-0.3,1-1,2.4-1.7,3.1c-0.8,0.9-2.7,0.8-3.8,0.9c-5.5,0.3-10.9-1.3-16.4-2c-2.8-0.4-5.6-0.5-8.4-0.5c-0.7,0-1.5,0.1-2.2,0.1
				c-0.8,0-0.5,0-0.8-0.7c-0.5-1.4-1-2.8-1.5-4.3c-0.9-2.6-0.8-4.9-0.2-7.6c0.6-2.7,1.4-5.4,2.3-8c1.7-5.2,3.9-10.2,6.5-15
				c2.9-5.5,6.1-10.8,9.2-16.2c3-5.2,6.7-9.7,11.4-13.5C56.8,66.8,55,65,53.8,66L53.8,66z"/>
		</g>
	</g>
	<g>
		<g>
			<path d="M25,130.9c-1.7,9.3-3.3,18.5-5,27.8c-0.8,4.4-1.6,8.7-1.9,13.2c-0.2,4.6-0.1,9.3-0.1,13.9c0.1,5.3,0.2,10.5,0.4,15.8
				c0,0.5,0.4,1.1,0.9,1.2c12.9,2,26,1.5,39.1,0.9c0.5,0,1.1-0.4,1.2-0.9c0.6-2.7,1.4-5.4,1.6-8.2c0.2-2.8-0.2-5.5-0.6-8.3
				c-0.7-5.5-1.4-11-2-16.5c-1.2-10.3-1.9-21.2,2-31.1c0.6-1.4,1.2-2.8,1.6-4.3c0.4-1.4,0.6-2.9,0.7-4.4c0.2-3.1-0.1-6.2-0.8-9.1
				c-0.4-1.6-2.8-0.9-2.4,0.7c0.6,2.6,0.9,5.3,0.8,8c-0.1,2.8-0.9,5.3-2,7.9c-1.9,4.7-2.8,9.8-3.1,14.8c-0.6,10.4,1.2,20.9,2.5,31.2
				c0.4,3.1,0.9,6.1,1,9.2c0.1,3.3-0.9,6.3-1.6,9.5c0.4-0.3,0.8-0.6,1.2-0.9c-12.8,0.6-25.7,1.1-38.4-0.8c0.3,0.4,0.6,0.8,0.9,1.2
				c-0.3-9.1-0.6-18.2-0.4-27.3c0.1-4.6,0.8-9,1.6-13.4c0.8-4.6,1.6-9.2,2.5-13.8c0.9-5.2,1.8-10.3,2.8-15.5
				C27.7,130,25.3,129.3,25,130.9L25,130.9z"/>
		</g>
	</g>
	<g>
		<g>
			<path d="M18.2,200.7c1.1,12.1,2.6,24.1,4.7,36c0.5,3,1.1,5.9,1.6,8.9c0.6,2.9,1.1,6,1.8,8.8c0.6,2.3,2,3.5,4.4,3.7
				c3.1,0.2,6.2,0.3,9.2,0.4c6.9,0.3,13.8,0.6,20.7,0.8c1.6,0.1,1.6-2.4,0-2.5c-5.7-0.2-11.5-0.5-17.2-0.7c-2.9-0.1-5.7-0.2-8.6-0.3
				c-1.3-0.1-2.7,0-4.1-0.2c-1.4-0.1-1.8-0.9-2.1-2.2c-1.3-5.5-2.3-11.1-3.3-16.7c-1-5.6-1.8-11.2-2.6-16.8
				c-0.9-6.4-1.6-12.8-2.1-19.3C20.5,199.1,18,199.1,18.2,200.7L18.2,200.7z"/>
		</g>
	</g>
	<g>
		<g>
			<path d="M61.3,257.8c0.9-2.9,3.7-5.4,3.3-8.7c-0.4-3.5-4.2-4.6-5.8-7.3c-1.7-2.9-1.6-6.6-1.6-9.8c0-4.5,0.1-9,0.2-13.5
				c0.1-5.1,0.1-10.3,0.2-15.4c0-1.6-2.5-1.6-2.5,0c-0.1,8.9-0.2,17.8-0.3,26.7c0,3.4-0.2,7,0.7,10.4c0.4,1.5,1.1,3,2.1,4.3
				c1,1.2,2.3,2.1,3.4,3.2c1.5,1.4,1.3,3,0.4,4.7c-0.9,1.7-1.9,3.2-2.5,5C58.4,258.6,60.8,259.3,61.3,257.8L61.3,257.8z"/>
		</g>
	</g>
	<g>
		<g>
			<path d="M28,256.3c0.2,4,0.8,7.9,2.1,11.7c0.1,0.4,0.4,0.8,0.9,0.9c2.8,0.5,5.4,0,8.1-0.7c3-0.8,6-1.4,9-1.7
				c1.4-0.2,2.9-0.3,4.3-0.4c1.1-0.1,2.7,0,3.7-0.6c1-0.6,1.2-1.7,1.4-2.8c0.3-1.5,0.6-3.1,0.9-4.6c0.3-1.6-2.1-2.2-2.4-0.7
				c-0.2,1.2-0.5,2.5-0.7,3.7c-0.1,0.5-0.1,1.3-0.3,1.9c-0.2,0.5,0,0.4-0.8,0.4c-2.6,0.3-5.1,0.4-7.7,0.8c-2.5,0.3-4.9,0.8-7.3,1.4
				c-2.4,0.6-4.9,1.4-7.4,0.9c0.3,0.3,0.6,0.6,0.9,0.9c-1.1-3.6-1.8-7.3-2-11.1C30.4,254.7,27.9,254.6,28,256.3L28,256.3z"/>
		</g>
	</g>
	<g>
		<g>
			<path d="M59.1,206.2c2.2-2.2,3.5-5,4.9-7.7c1.6-3.2,3.3-6.2,5.1-9.3c3.6-6,7.4-11.9,11.3-17.7c-0.6,0.1-1.1,0.3-1.7,0.4
				c2.1,1.3,4.2,2.5,6.3,3.8c1,0.6,2,1.2,3,1.8c1.2,0.8,1.1,2,0.9,3.3c-0.4,2.4-1.1,4.7-1.7,7.1c-0.6,2.3-1.2,4.6-1.8,6.8
				c-0.7,2.3-1.4,4.7-2.1,7c-0.8,2.3-1.9,3.8-3.6,5.5c-3.4,3.4-6.9,6.8-10.3,10.2c-2,2-4,3.9-6,5.9c-0.4,0.4-0.9,1.1-1.5,1
				c-0.5,0-1.2-0.5-1.6-0.7c-1.3-0.5-2.6-1.1-3.8-1.6c-1.5-0.6-2.1,1.8-0.7,2.4c1.2,0.5,2.4,1,3.6,1.5c1,0.4,2.1,1.1,3.2,0.9
				c1.1-0.2,1.9-1.2,2.7-2c1-1,2-2,3-2.9c4-3.9,7.9-7.8,11.9-11.7c1.8-1.8,3.7-3.4,4.7-5.8c1-2.3,1.7-4.9,2.5-7.3
				c0.8-2.7,1.5-5.5,2.2-8.2c0.7-2.6,1.5-5.3,1.8-8c0.2-1.2,0.2-2.7-0.3-3.8c-0.6-1.1-1.8-1.7-2.8-2.3c-2.7-1.7-5.5-3.3-8.2-5
				c-0.6-0.4-1.3-0.1-1.7,0.4c-3.8,5.7-7.6,11.4-11.1,17.3c-1.7,2.9-3.4,5.8-4.9,8.8c-1.4,2.8-2.7,5.8-5,8.1
				C56.2,205.6,57.9,207.4,59.1,206.2L59.1,206.2z"/>
		</g>
	</g>
	<g>
		<g>
			<path d="M75.2,201.5c1.6,0,1.6-2.5,0-2.5C73.6,199,73.6,201.5,75.2,201.5L75.2,201.5z"/>
		</g>
	</g>
	<g>
		<g>
			<path d="M63.1,131.9c10.1-0.6,20.3-1.3,30.4-1.2c9.9,0.1,19.9,1.2,29.7-0.1c1.6-0.2,1.6-2.7,0-2.5c-9.9,1.3-19.8,0.2-29.7,0.1
				c-10.2-0.1-20.3,0.6-30.4,1.2C61.5,129.5,61.5,132,63.1,131.9L63.1,131.9z"/>
		</g>
	</g>
	<g>
		<g>
			<path d="M143.2,131.5c19.7-0.4,39.3-0.9,59-1.3c1.6,0,1.6-2.5,0-2.5c-19.7,0.4-39.3,0.9-59,1.3
				C141.6,129.1,141.6,131.6,143.2,131.5L143.2,131.5z"/>
		</g>
	</g>
	<g>
		<g>
			<path d="M203.5,129.5c2.5-3.1,3.7-7.1,4.8-10.8c1.2-4,2.2-8.2,3.1-12.3c1.9-8.5,4.1-17,4.6-25.7c0.2-2.4,0.2-4.8,0-7.2
				c-0.2-2.1-0.3-4.5-1.5-6.3c-0.9-1.3-3.1-0.1-2.2,1.3c1,1.5,1,3.5,1.2,5.3c0.1,2.1,0.1,4.2,0,6.2c-0.2,4.1-0.9,8.1-1.7,12.1
				c-1.5,7.8-3.2,15.7-5.3,23.4c-0.6,2.2-1.3,4.4-2.1,6.5c-0.7,2-1.5,4-2.8,5.7C200.7,129,202.5,130.8,203.5,129.5L203.5,129.5z"/>
		</g>
	</g>
	<g>
		<g>
			<path d="M212.9,68.8c7.9,3.3,13.8,9.7,17.9,17.1c4.7,8.5,6.8,18.2,8.3,27.7c0.9,5.9,1.6,11.8,2.6,17.7c0.3-0.5,0.6-1,0.9-1.5
				c-7.5,1.8-15,3.1-22.7,4c-3.7,0.4-7.4,0.7-11.2,0.9c-0.8,0-1.9,0.3-2.7,0.1c-0.8-0.2-0.9-1.2-1.1-1.8c-0.4-1.4-0.7-2.9-1.2-4.3
				c-0.5-1.5-2.9-0.9-2.4,0.7c0.9,2.6,1,7.5,4.4,7.9c1.9,0.3,4-0.1,5.9-0.2c2.1-0.1,4.2-0.3,6.3-0.5c8.5-0.9,17-2.3,25.3-4.3
				c0.7-0.2,1-0.9,0.9-1.5c-3.2-19.3-4-40.7-18.2-55.7c-3.3-3.5-7.3-6.4-11.8-8.3C212.7,66,211.4,68.2,212.9,68.8L212.9,68.8z"/>
		</g>
	</g>
	<g>
		<g>
			<path d="M204,135.7c1.5,12.8,3,25.7,3.3,38.6c0.2,6.3,0,12.7-0.5,19c-0.1,1.5-0.3,2.9-0.5,4.4c-0.2,1.3-0.4,2.7-0.3,4
				c0.4,2.8,2.5,3.6,5,4c6,1.1,12.2,0.5,18.2-0.6c3.1-0.5,6.2-1.1,9.2-1.8c2.6-0.6,5.2-1.3,7.5-2.7c4.9-2.9,6.4-9,7.3-14.2
				c1.1-5.9,1.1-11.9,0.9-17.9c-0.3-6.8-0.5-13.8-2.8-20.3c-2.4-6.8-5.3-13.4-7.9-20.1c-0.6-1.5-3-0.8-2.4,0.7
				c2.3,5.7,4.5,11.4,6.8,17.1c1,2.6,2,5.2,2.6,8c0.6,2.9,0.7,5.9,0.9,8.9c0.4,5.6,0.7,11.2,0.3,16.8c-0.2,2.8-0.6,5.7-1.2,8.4
				c-0.6,2.6-1.3,5.3-2.7,7.6c-2.8,4.5-9.4,5.2-14.1,6.1c-5.7,1.1-11.5,2.2-17.4,2c-1.5-0.1-2.9-0.2-4.4-0.5
				c-1.2-0.2-2.7-0.3-3.1-1.6c-0.3-0.9,0-2.1,0.1-3c0.2-1.6,0.4-3.2,0.5-4.9c0.5-5.9,0.7-11.9,0.6-17.8c-0.2-13.5-1.8-26.9-3.3-40.3
				C206.3,134.2,203.8,134.1,204,135.7L204,135.7z"/>
		</g>
	</g>
	<g>
		<g>
			<path d="M206.5,202.5c1.1,2.5,1.4,5.3,1.6,8c0.1,2.7,0.2,5.5,0.3,8.2c0.2,5.8,0.4,11.6,0.5,17.4c0.1,2.3,0.7,5.6-1,7.5
				c-1.1,1.3-2.8,2-4,3.2c-1.4,1.3-2,3.1-1.4,5c0.7,2,2.7,3.3,4.7,3.8c2.6,0.6,5.5,0.6,8.2,0.9c2.8,0.2,5.5,0.5,8.3,0.8
				c2.8,0.3,5.7,0.6,8.5,0.9c1.4,0.2,2.8,0.3,4.1,0.5c0.6,0.1,1.3,0.2,1.9,0.2c0.6,0.1,1.5,0.4,2.1,0c0.8-0.5,1.4-1.7,1.8-2.5
				c0.5-1.1,0.8-2.2,1.1-3.3c0.6-2.5,1.4-5,2.2-7.4c1.8-5.1,3.2-10.2,4.1-15.5c2-11.7,1.8-23.7,1.3-35.6c-0.1-1.6-2.6-1.6-2.5,0
				c0.7,16.8,0.6,33.7-5.1,49.7c-0.8,2.2-1.6,4.4-2.1,6.7c-0.5,2.1-1,4.2-2.4,5.9c0.3-0.1,0.6-0.2,0.9-0.4c-6.3-0.8-12.7-1.5-19-2.2
				c-3.3-0.3-6.5-0.6-9.8-0.9c-2-0.2-6.6-0.4-6.3-3.5c0.2-1.7,2.7-2.8,3.9-3.8c1.9-1.6,2.7-3.6,2.8-6c0.1-3.1-0.2-6.3-0.3-9.4
				c-0.1-3.2-0.2-6.5-0.3-9.7c-0.1-3.6-0.2-7.1-0.3-10.7c-0.2-3.2-0.6-6.3-1.9-9.2C208,199.7,205.8,201,206.5,202.5L206.5,202.5z"/>
		</g>
	</g>
	<g>
		<g>
			<path d="M207.8,254.9c0,2.3,0,4.5,0,6.8c0,1.5-0.5,4.3,1.2,5c0.9,0.4,2,0.3,3,0.4c1.1,0.1,2.3,0.2,3.4,0.2
				c2.4,0.1,4.7,0.2,7.1,0.3c4.6,0.2,9.2,0.4,13.7,0.4c2.2,0,2.3-1.5,2.4-3.3c0.1-2.3,0.1-4.6,0.2-6.9c0-1.6-2.5-1.6-2.5,0
				c0,1.4-0.1,2.8-0.1,4.3c0,0.6,0,1.3-0.1,1.9c0,0.5,0.2,1.6-0.1,2c0.2-0.2,0.5-0.4,0.7-0.6c-0.6,0.2-1.6,0-2.2,0
				c-0.7,0-1.5,0-2.2-0.1c-1.5,0-2.9-0.1-4.4-0.1c-3.1-0.1-6.2-0.2-9.3-0.4c-1.5-0.1-2.9-0.2-4.4-0.2c-0.7,0-1.5-0.1-2.2-0.1
				c-0.4,0-0.8,0-1.2-0.1c-0.6-0.1-0.3,0.2-0.5-0.4c-0.3-1.3,0-3,0-4.4c0-1.6,0-3.2,0-4.9C210.3,253.3,207.8,253.3,207.8,254.9
				L207.8,254.9z"/>
		</g>
	</g>
	<g>
		<g>
			<path d="M86.8,197c12.1,0.3,24.2,0.6,36.3,0.9c1.6,0,1.6-2.5,0-2.5c-12.1-0.3-24.2-0.6-36.3-0.9C85.2,194.4,85.2,196.9,86.8,197
				L86.8,197z"/>
		</g>
	</g>
	<g>
		<g>
			<path d="M142.5,197c12.9,0.6,25.8,0.4,38.7-0.7c1.6-0.1,1.6-2.6,0-2.5c-12.9,1.1-25.8,1.4-38.7,0.7
				C140.9,194.4,140.9,196.9,142.5,197L142.5,197z"/>
		</g>
	</g>
	<g>
		<g>
			<path d="M182.5,194.9c0.7-6.6-2-12.8-2.9-19.3c-0.1-0.7-0.5-1.2-1.2-1.2c-0.6,0-1.3,0.6-1.2,1.2c0.9,6.4,3.6,12.7,2.9,19.3
				C179.8,196.5,182.3,196.4,182.5,194.9L182.5,194.9z"/>
		</g>
	</g>
	<g>
		<g>
			<path d="M179,176.7c1.8-1.3,3.6-2.5,5.5-3.6c0.4-0.2,0.8-0.5,1.2-0.7c0.2-0.1,1-0.7,1.2-0.7c0.7-0.1,1.5,1.5,1.9,2.1
				c2.2,3.2,4.1,6.5,5.9,9.9c3.6,6.8,6.9,13.9,11.3,20.3c0.9,1.3,3.1,0.1,2.2-1.3c-4.9-7.1-8.4-15-12.6-22.6c-1-1.8-2.1-3.6-3.2-5.4
				c-1-1.6-2.1-3.7-3.6-5c-1.7-1.5-3.7,0.1-5.2,1c-2,1.2-4,2.5-5.9,3.9C176.4,175.5,177.7,177.7,179,176.7L179,176.7z"/>
		</g>
	</g>
	<g>
		<g>
			<path d="M180.1,192.7c-0.2,3.3-0.3,6.7,0.6,9.9c0.9,3.4,3.2,5.8,5.5,8.4c5.2,5.5,10,11.4,14.8,17.3c0.3,0.4,1.1,0.5,1.5,0.2
				c2.6-1.7,5.1-3.4,7.5-5.3c1.3-1-0.5-2.7-1.8-1.8c-2.2,1.8-4.6,3.4-7,4.9c0.5,0.1,1,0.1,1.5,0.2c-4.5-5.5-9-11.1-13.8-16.3
				c-2.2-2.4-4.8-4.6-5.7-7.9c-0.9-3.1-0.8-6.4-0.6-9.6C182.7,191.1,180.2,191.1,180.1,192.7L180.1,192.7z"/>
		</g>
	</g>
	<g>
		<g>
			<path d="M188.6,199.8c-0.1,0.1-0.2,0.3-0.3,0.4c-0.1,0.2-0.2,0.3-0.2,0.5c-0.1,0.3-0.1,0.5-0.2,0.8c-0.1,0.4,0,0.9,0.2,1.3
				c0.2,0.5,0.5,1,0.9,1.3c0.3,0.3,0.6,0.4,1,0.6c0.4,0.1,0.8,0.2,1.1,0.1c0.7-0.1,1.4-0.6,1.7-1.3c0.2-0.4,0.3-0.7,0.3-1.2
				c0-0.3,0-0.6-0.1-0.9c-0.1-0.3-0.2-0.6-0.3-0.9c-0.2-0.4-0.5-0.6-0.8-0.9c-0.1-0.1-0.2-0.1-0.2-0.1c-0.2-0.1-0.4-0.2-0.6-0.2
				c-0.4-0.1-0.8-0.1-1.2,0c-0.4,0.1-0.8,0.3-1,0.6c-0.2,0.3-0.5,0.6-0.5,1c-0.1,0.4-0.1,0.8,0.1,1.1c0.2,0.5,0.4,0.8,0.9,1.1
				c0.3,0.2,0.6,0.2,1,0.1c0.3-0.1,0.6-0.3,0.7-0.6c0.3-0.6,0.2-1.4-0.4-1.7c0,0-0.1,0-0.1-0.1c0.1,0.1,0.2,0.1,0.3,0.2
				c0,0-0.1-0.1-0.1-0.1c0.1,0.1,0.1,0.2,0.2,0.3c0-0.1-0.1-0.1-0.1-0.2c0,0.1,0.1,0.2,0.1,0.3c0-0.1-0.1-0.1-0.1-0.2
				c0,0.1,0,0.2,0,0.3c0-0.1,0-0.2,0-0.3c0,0.1,0,0.2,0,0.3c0-0.1,0-0.2,0.1-0.3c0,0.1-0.1,0.2-0.1,0.3c0-0.1,0.1-0.1,0.1-0.2
				c-0.1,0.1-0.1,0.2-0.2,0.3c0-0.1,0.1-0.1,0.1-0.1c-0.1,0.1-0.2,0.1-0.3,0.2c0.1,0,0.1-0.1,0.2-0.1c-0.1,0-0.2,0.1-0.3,0.1
				c0.1,0,0.2-0.1,0.3-0.1c-0.1,0-0.2,0-0.3,0c0.1,0,0.2,0,0.3,0c-0.1,0-0.2,0-0.3,0c0.1,0,0.2,0,0.3,0.1c-0.1,0-0.2-0.1-0.3-0.1
				c0.1,0,0.2,0.1,0.3,0.2c-0.1-0.1-0.2-0.1-0.3-0.2c0.1,0.1,0.2,0.2,0.2,0.2c-0.1-0.1-0.1-0.2-0.2-0.3c0.1,0.1,0.1,0.2,0.2,0.3
				c0-0.1-0.1-0.2-0.1-0.3c0.1,0.2,0.1,0.3,0.1,0.5c0-0.1,0-0.2,0-0.3c0,0.2,0,0.4,0,0.6c0-0.1,0-0.2,0-0.3c0,0.2-0.1,0.3-0.1,0.5
				c0-0.1,0.1-0.2,0.1-0.3c0,0.1-0.1,0.2-0.2,0.3c0.1-0.1,0.1-0.2,0.2-0.3c-0.1,0.1-0.1,0.1-0.2,0.2c0.1-0.1,0.2-0.1,0.3-0.2
				c-0.1,0-0.1,0.1-0.2,0.1c0.1,0,0.2-0.1,0.3-0.1c-0.1,0-0.2,0.1-0.3,0.1c0.1,0,0.2,0,0.3,0c-0.1,0-0.2,0-0.3,0c0.1,0,0.2,0,0.3,0
				c-0.1,0-0.3-0.1-0.4-0.1c0.1,0,0.2,0.1,0.3,0.1c-0.1-0.1-0.2-0.1-0.3-0.2c0.1,0.1,0.2,0.1,0.3,0.2c-0.1-0.1-0.2-0.2-0.3-0.3
				c0.1,0.1,0.1,0.2,0.2,0.3c-0.1-0.1-0.2-0.3-0.2-0.4c0,0.1,0.1,0.2,0.1,0.3c-0.1-0.2-0.1-0.4-0.1-0.5c0,0.1,0,0.2,0,0.3
				c0-0.2,0-0.3,0-0.5c0,0.1,0,0.2,0,0.3c0-0.2,0.1-0.3,0.1-0.5c0,0.1-0.1,0.2-0.1,0.3c0.1-0.1,0.1-0.2,0.2-0.3
				c-0.1,0.1-0.1,0.2-0.2,0.3c0,0,0,0,0-0.1c0.2-0.3,0.4-0.5,0.4-0.9c0-0.3-0.1-0.7-0.4-0.9c-0.2-0.2-0.6-0.4-0.9-0.4
				C189.2,199.4,188.8,199.5,188.6,199.8L188.6,199.8z"/>
		</g>
	</g>
	<g>
		<g>
			<path d="M74,199.9c-0.2,0.7-0.2,1.4-0.1,2.1c0.1,0.7,0.5,1.4,1.2,1.8c0.7,0.3,1.5,0.5,2.3,0.3c0.7-0.1,1.3-0.6,1.8-1.2
				c0.3-0.5,0.5-1.1,0.5-1.7c0-0.7-0.3-1.4-0.7-1.9c-0.4-0.4-0.9-0.8-1.5-0.9c-0.4-0.1-0.8-0.1-1.2,0c-0.6,0.2-1,0.6-1.2,1.2
				c-0.2,0.4-0.1,0.9-0.1,1.3c0.1,0.4,0.3,0.8,0.6,1.1c0.5,0.5,1.3,0.7,1.9,0.3c0.7-0.4,1-1.3,0.5-2c-0.2-0.3-0.4-0.5-0.7-0.6
				c-0.3-0.1-0.7,0-1,0.1c-0.6,0.4-0.8,1.1-0.4,1.7c0,0,0,0,0,0c0-0.1-0.1-0.2-0.1-0.3c0,0,0,0,0,0c0-0.1,0-0.2,0-0.3c0,0,0,0,0,0
				c0-0.1,0-0.2,0-0.3c0,0,0,0.1,0,0.1c0-0.1,0.1-0.2,0.1-0.3c0,0,0,0,0,0c0.1-0.1,0.1-0.2,0.2-0.3c0,0,0,0-0.1,0.1
				c0.1-0.1,0.2-0.1,0.3-0.2c0,0,0,0-0.1,0c0.1,0,0.2-0.1,0.3-0.1c0,0,0,0,0,0c0.1,0,0.2,0,0.3,0c0,0-0.1,0-0.1,0c0.1,0,0.2,0,0.3,0
				c0,0,0,0,0,0c0.1,0,0.2,0.1,0.3,0.1c0,0-0.1,0-0.1-0.1c0.1,0.1,0.2,0.1,0.3,0.2c-0.1,0-0.1-0.1-0.1-0.1c0.1,0.1,0.1,0.2,0.2,0.3
				c0-0.1-0.1-0.1-0.1-0.2c0,0.1,0.1,0.2,0.1,0.3c0-0.1-0.1-0.2-0.1-0.3c0,0.1,0,0.2,0,0.3c0-0.1,0-0.2,0-0.3c0,0.1,0,0.2,0,0.3
				c0-0.1,0-0.2,0.1-0.3c0,0.1-0.1,0.2-0.1,0.3c0,0,0-0.1,0.1-0.1c-0.1,0.1-0.1,0.2-0.2,0.3c0,0,0-0.1,0.1-0.1
				c-0.1,0.1-0.2,0.1-0.3,0.2c0,0,0.1,0,0.1-0.1c-0.1,0-0.2,0.1-0.3,0.1c0,0,0.1,0,0.1,0c-0.1,0-0.2,0-0.3,0c0.1,0,0.2,0,0.3,0
				c-0.1,0-0.2,0-0.3,0c0.2,0,0.3,0.1,0.5,0.1c-0.1,0-0.2-0.1-0.3-0.1c0.1,0.1,0.3,0.1,0.4,0.2c-0.1-0.1-0.2-0.1-0.3-0.2
				c0.1,0.1,0.2,0.2,0.3,0.3c-0.1-0.1-0.1-0.2-0.2-0.3c0.1,0.1,0.2,0.3,0.2,0.4c0-0.1-0.1-0.2-0.1-0.3c0.1,0.1,0.1,0.3,0.1,0.4
				c0-0.1,0-0.2,0-0.3c0,0.1,0,0.3,0,0.4c0-0.1,0-0.2,0-0.3c0,0.2-0.1,0.3-0.1,0.5c0-0.1,0.1-0.2,0.1-0.3c-0.1,0.1-0.1,0.3-0.2,0.4
				c0.1-0.1,0.1-0.2,0.2-0.3c-0.1,0.1-0.2,0.2-0.3,0.3c0.1-0.1,0.2-0.1,0.3-0.2c-0.1,0.1-0.2,0.2-0.4,0.2c0.1,0,0.2-0.1,0.3-0.1
				c-0.1,0-0.2,0.1-0.3,0.1c0.1,0,0.2,0,0.3,0c-0.2,0-0.3,0-0.5,0c0.1,0,0.2,0,0.3,0c-0.2,0-0.5-0.1-0.7-0.2c0.1,0,0.2,0.1,0.3,0.1
				c-0.1,0-0.2-0.1-0.2-0.1c0.1,0.1,0.2,0.1,0.3,0.2c-0.1-0.1-0.1-0.1-0.2-0.2c0.1,0.1,0.1,0.2,0.2,0.3c-0.1-0.1-0.1-0.2-0.1-0.3
				c0,0.1,0.1,0.2,0.1,0.3c-0.1-0.1-0.1-0.3-0.1-0.5c0,0.1,0,0.2,0,0.3c0-0.3,0-0.6,0-0.9c0,0.1,0,0.2,0,0.3c0-0.2,0.1-0.4,0.1-0.6
				c0.2-0.6-0.2-1.4-0.9-1.5C74.9,198.9,74.2,199.3,74,199.9L74,199.9z"/>
		</g>
	</g>
	<g>
		<g>
			<path d="M61.5,247.8c2.5,2.6,5.8,4.5,9.4,5.2c4,0.8,8.2,0.9,12.2,1.1c8.6,0.5,17.3,0.8,25.9,0.9c4.9,0,9.9,0,14.8-0.1
				c1.6,0,1.6-2.5,0-2.5c-8.2,0.2-16.5,0.1-24.7-0.1c-8.2-0.2-16.5-0.5-24.8-1.3c-4.3-0.4-8.1-1.9-11.1-5
				C62.2,244.9,60.4,246.6,61.5,247.8L61.5,247.8z"/>
		</g>
	</g>
	<g>
		<g>
			<path d="M124,254.6c15.5,0.5,31,1,46.5-0.1c1.6-0.1,1.6-2.6,0-2.5c-15.5,1.1-31,0.6-46.5,0.1C122.4,252.1,122.4,254.6,124,254.6
				L124,254.6z"/>
		</g>
	</g>
	<g>
		<g>
			<path d="M170.6,254.5c2.8,0,5.6-0.6,8.5-0.9c2.9-0.3,5.9-0.3,8.8-0.5c5.7-0.3,11.3-1.4,16.7-3.2c1.1-0.3,1.2-1.7,0.3-2.3
				c-0.5-0.3-0.9-0.4-1.4-0.2c-1.5,0.5-0.9,2.9,0.7,2.4c0.1,0,0.2-0.1,0.3-0.1c-0.3,0-0.6-0.1-1-0.1c0.1,0.1,0.1,0.1,0.2,0.2
				c0.1-0.8,0.2-1.5,0.3-2.3c-5.4,1.7-10.9,2.8-16.6,3.1c-2.8,0.2-5.6,0.2-8.3,0.5c-2.8,0.3-5.6,0.9-8.5,0.9
				C169,252.1,169,254.6,170.6,254.5L170.6,254.5z"/>
		</g>
	</g>
	<g>
		<g>
			<path d="M129.8,246.8c-0.1,0-0.2,0-0.4,0c-0.3,0-0.6,0.1-0.9,0.2c-0.4,0.2-0.7,0.5-0.9,0.9c-0.2,0.4-0.4,0.8-0.4,1.3
				c0,0.5,0.2,1.1,0.5,1.5c0.3,0.3,0.7,0.5,1.1,0.6c0.4,0.1,0.9,0.1,1.3,0c0.4-0.1,0.8-0.4,1-0.7c0.3-0.3,0.6-0.7,0.6-1.1
				c0-0.1,0-0.3,0-0.4c0-0.1,0-0.2,0-0.3c0-0.1,0-0.2,0-0.2c0-0.1-0.1-0.2-0.1-0.4c-0.1-0.2-0.2-0.4-0.4-0.5
				c-0.4-0.3-0.8-0.5-1.3-0.6c-0.2-0.1-0.3-0.1-0.5,0c-0.2,0-0.3,0.1-0.5,0.1c-0.3,0.2-0.5,0.4-0.6,0.7c-0.1,0.3-0.1,0.7,0.1,1
				c0.2,0.3,0.4,0.5,0.7,0.6c0.2,0,0.3,0.1,0.5,0.1c-0.1,0-0.2-0.1-0.3-0.1c0.1,0,0.1,0.1,0.2,0.1c-0.1-0.1-0.2-0.1-0.3-0.2
				c0.1,0,0.1,0.1,0.1,0.1c-0.1-0.1-0.1-0.2-0.2-0.3c0,0.1,0.1,0.1,0.1,0.2c0-0.1-0.1-0.2-0.1-0.3c0,0,0,0.1,0,0.1
				c0-0.1,0-0.2,0-0.3c0,0,0,0.1,0,0.1c0-0.1,0-0.2,0-0.3c0,0.1,0,0.1,0,0.2c0-0.1,0.1-0.2,0.1-0.3c-0.1,0.1-0.2,0.3-0.2,0.4
				c0.1-0.1,0.1-0.2,0.2-0.3c-0.1,0.1-0.2,0.2-0.3,0.3c0.1-0.1,0.2-0.1,0.3-0.2c-0.1,0-0.1,0.1-0.2,0.1c0.1,0,0.2-0.1,0.3-0.1
				c-0.1,0-0.1,0-0.2,0c0.1,0,0.2,0,0.3,0c-0.2,0-0.3,0-0.5,0c0.1,0,0.2,0,0.3,0c-0.1,0-0.2,0-0.3-0.1c0.1,0,0.2,0.1,0.3,0.1
				c-0.1,0-0.1-0.1-0.2-0.1c0.1,0.1,0.2,0.1,0.3,0.2c0,0-0.1-0.1-0.1-0.1c0.1,0.1,0.1,0.2,0.2,0.3c0,0-0.1-0.1-0.1-0.1
				c0,0.1,0.1,0.2,0.1,0.3c0-0.1,0-0.1-0.1-0.2c0,0.1,0,0.2,0,0.3c0-0.1,0-0.2,0-0.2c0,0.1,0,0.2,0,0.3c0-0.1,0.1-0.3,0.1-0.4
				c0,0.1-0.1,0.2-0.1,0.3c0.1-0.2,0.1-0.3,0.2-0.4c-0.1,0.1-0.1,0.2-0.2,0.3c0-0.1,0.1-0.1,0.1-0.1c-0.1,0.1-0.2,0.1-0.3,0.2
				c0.1,0,0.1-0.1,0.2-0.1c-0.1,0-0.2,0.1-0.3,0.1c0.1,0,0.1,0,0.2,0c-0.1,0-0.2,0-0.3,0c0.2,0,0.3,0,0.5,0c0.3,0,0.7-0.2,0.9-0.4
				c0.2-0.2,0.4-0.6,0.4-0.9c0-0.3-0.1-0.7-0.4-0.9c-0.1-0.1-0.2-0.1-0.3-0.2C130.2,246.9,130,246.8,129.8,246.8L129.8,246.8z"/>
		</g>
	</g>
	<g>
		<g>
			<path d="M129.1,208.1c-0.3,0.2-0.5,0.4-0.7,0.7c-0.1,0.2-0.2,0.4-0.3,0.6c-0.1,0.3-0.2,0.6-0.2,0.9c-0.1,0.2-0.1,0.5-0.1,0.8
				c0,0.4,0.2,0.8,0.5,1.2c0.4,0.4,1,0.6,1.5,0.6c0.5,0,0.9-0.1,1.4-0.4c0.2-0.1,0.4-0.2,0.5-0.4c0.1-0.1,0.1-0.1,0.2-0.2
				c0.1-0.1,0.2-0.3,0.3-0.4c0.5-0.9,0.4-2.1-0.2-2.9c-0.2-0.2-0.4-0.4-0.7-0.6c-0.3-0.2-0.6-0.3-1-0.3c-0.2,0-0.5,0-0.7,0.1
				c-0.4,0.1-0.6,0.3-0.9,0.5c-0.2,0.2-0.4,0.6-0.4,0.9c0,0.3,0.1,0.7,0.4,0.9c0.2,0.2,0.6,0.4,0.9,0.4c0.1,0,0.2,0,0.3,0
				c0.2-0.1,0.4-0.2,0.6-0.3c0,0,0,0,0.1,0c-0.1,0.1-0.2,0.1-0.3,0.2c0.1,0,0.1-0.1,0.2-0.1c-0.1,0-0.2,0.1-0.3,0.1
				c0.1,0,0.2-0.1,0.3-0.1c-0.1,0-0.2,0-0.3,0c0.1,0,0.2,0,0.3,0c-0.1,0-0.2,0-0.3,0c0.1,0,0.2,0,0.2,0.1c-0.1,0-0.2-0.1-0.3-0.1
				c0.1,0,0.2,0.1,0.2,0.1c-0.1-0.1-0.2-0.1-0.3-0.2c0.1,0.1,0.1,0.1,0.2,0.2c-0.1-0.1-0.1-0.2-0.2-0.3c0.1,0.1,0.1,0.2,0.1,0.2
				c0-0.1-0.1-0.2-0.1-0.3c0,0.1,0.1,0.3,0.1,0.4c0-0.1,0-0.2,0-0.3c0,0.1,0,0.3,0,0.4c0-0.1,0-0.2,0-0.3c0,0.1,0,0.2-0.1,0.3
				c0-0.1,0.1-0.2,0.1-0.3c0,0.1-0.1,0.2-0.1,0.2c0.1-0.1,0.1-0.2,0.2-0.3c-0.1,0.1-0.1,0.2-0.2,0.2c0.1-0.1,0.2-0.1,0.3-0.2
				c-0.1,0.1-0.2,0.2-0.4,0.2c0.1,0,0.2-0.1,0.3-0.1c-0.1,0.1-0.3,0.1-0.4,0.1c0.1,0,0.2,0,0.3,0c-0.1,0-0.2,0-0.3,0
				c0.1,0,0.2,0,0.3,0c-0.1,0-0.2,0-0.2-0.1c0.1,0,0.2,0.1,0.3,0.1c-0.1,0-0.1-0.1-0.2-0.1c0.1,0.1,0.2,0.1,0.3,0.2
				c0,0-0.1-0.1-0.1-0.1c0.1,0.1,0.1,0.2,0.2,0.3c0,0,0-0.1-0.1-0.1c0,0.1,0.1,0.2,0.1,0.3c0,0,0-0.1,0-0.1c0,0.1,0,0.2,0,0.3
				c0-0.1,0-0.1,0-0.2c0,0.1,0,0.2,0,0.3c0.1-0.4,0.2-0.8,0.3-1.2c0,0.1-0.1,0.2-0.1,0.3c0-0.1,0.1-0.2,0.2-0.3
				c-0.1,0.1-0.1,0.2-0.2,0.3c0-0.1,0.1-0.1,0.1-0.2c-0.1,0.1-0.2,0.1-0.3,0.2c0,0,0,0,0.1,0c0.3-0.2,0.5-0.4,0.6-0.7
				c0.1-0.3,0-0.7-0.1-1c-0.2-0.3-0.4-0.5-0.7-0.6C129.7,207.9,129.4,207.9,129.1,208.1L129.1,208.1z"/>
		</g>
	</g>
	<g>
		<g>
			<path d="M129.5,210.5c1.6,0,1.6-2.5,0-2.5C127.9,208,127.9,210.5,129.5,210.5L129.5,210.5z"/>
		</g>
	</g>
	<g>
		<g>
			<path d="M128.8,168.9c-0.3,0.2-0.5,0.4-0.7,0.7c-0.1,0.2-0.2,0.4-0.3,0.6c-0.1,0.3-0.2,0.6-0.2,0.9c-0.1,0.2-0.1,0.5-0.1,0.8
				c0,0.4,0.2,0.8,0.5,1.2c0.4,0.4,1,0.6,1.5,0.6c0.5,0,0.9-0.1,1.4-0.4c0.2-0.1,0.4-0.2,0.5-0.4c0.1-0.1,0.1-0.1,0.2-0.2
				c0.1-0.1,0.2-0.3,0.3-0.4c0.5-0.9,0.4-2.1-0.2-2.9c-0.2-0.2-0.4-0.4-0.7-0.6c-0.3-0.2-0.6-0.3-1-0.3c-0.2,0-0.5,0-0.7,0.1
				c-0.4,0.1-0.6,0.3-0.9,0.5c-0.2,0.2-0.4,0.6-0.4,0.9c0,0.3,0.1,0.7,0.4,0.9c0.2,0.2,0.6,0.4,0.9,0.4c0.1,0,0.2,0,0.3,0
				c0.2-0.1,0.4-0.2,0.6-0.3c0,0,0,0,0.1,0c-0.1,0.1-0.2,0.1-0.3,0.2c0.1,0,0.1-0.1,0.2-0.1c-0.1,0-0.2,0.1-0.3,0.1
				c0.1,0,0.2-0.1,0.3-0.1c-0.1,0-0.2,0-0.3,0c0.1,0,0.2,0,0.3,0c-0.1,0-0.2,0-0.3,0c0.1,0,0.2,0,0.2,0.1c-0.1,0-0.2-0.1-0.3-0.1
				c0.1,0,0.2,0.1,0.2,0.1c-0.1-0.1-0.2-0.1-0.3-0.2c0.1,0.1,0.1,0.1,0.2,0.2c-0.1-0.1-0.1-0.2-0.2-0.3c0.1,0.1,0.1,0.2,0.1,0.2
				c0-0.1-0.1-0.2-0.1-0.3c0,0.1,0.1,0.3,0.1,0.4c0-0.1,0-0.2,0-0.3c0,0.1,0,0.3,0,0.4c0-0.1,0-0.2,0-0.3c0,0.1,0,0.2-0.1,0.3
				c0-0.1,0.1-0.2,0.1-0.3c0,0.1-0.1,0.2-0.1,0.2c0.1-0.1,0.1-0.2,0.2-0.3c-0.1,0.1-0.1,0.2-0.2,0.2c0.1-0.1,0.2-0.1,0.3-0.2
				c-0.1,0.1-0.2,0.2-0.4,0.2c0.1,0,0.2-0.1,0.3-0.1c-0.1,0.1-0.3,0.1-0.4,0.1c0.1,0,0.2,0,0.3,0c-0.1,0-0.2,0-0.3,0
				c0.1,0,0.2,0,0.3,0c-0.1,0-0.2,0-0.2-0.1c0.1,0,0.2,0.1,0.3,0.1c-0.1,0-0.1-0.1-0.2-0.1c0.1,0.1,0.2,0.1,0.3,0.2
				c0,0-0.1-0.1-0.1-0.1c0.1,0.1,0.1,0.2,0.2,0.3c0,0,0-0.1-0.1-0.1c0,0.1,0.1,0.2,0.1,0.3c0,0,0-0.1,0-0.1c0,0.1,0,0.2,0,0.3
				c0-0.1,0-0.1,0-0.2c0,0.1,0,0.2,0,0.3c0.1-0.4,0.2-0.8,0.3-1.2c0,0.1-0.1,0.2-0.1,0.3c0-0.1,0.1-0.2,0.2-0.3
				c-0.1,0.1-0.1,0.2-0.2,0.3c0-0.1,0.1-0.1,0.1-0.2c-0.1,0.1-0.2,0.1-0.3,0.2c0,0,0,0,0.1,0c0.3-0.2,0.5-0.4,0.6-0.7
				c0.1-0.3,0-0.7-0.1-1c-0.2-0.3-0.4-0.5-0.7-0.6C129.4,168.7,129.1,168.7,128.8,168.9L128.8,168.9z"/>
		</g>
	</g>
	<g>
		<g>
			<path d="M129.2,171.3c1.6,0,1.6-2.5,0-2.5C127.6,168.8,127.6,171.3,129.2,171.3L129.2,171.3z"/>
		</g>
	</g>
	<g>
		<g>
			<path d="M128.8,128.5c-0.3,0.2-0.5,0.4-0.7,0.7c-0.1,0.2-0.2,0.4-0.3,0.6c-0.1,0.3-0.2,0.6-0.2,0.9c-0.1,0.2-0.1,0.5-0.1,0.8
				c0,0.4,0.2,0.8,0.5,1.2c0.4,0.4,1,0.6,1.5,0.6c0.5,0,0.9-0.1,1.4-0.4c0.2-0.1,0.4-0.2,0.5-0.4c0.1-0.1,0.1-0.1,0.2-0.2
				c0.1-0.1,0.2-0.3,0.3-0.4c0.5-0.9,0.4-2.1-0.2-2.9c-0.2-0.2-0.4-0.4-0.7-0.6c-0.3-0.2-0.6-0.3-1-0.3c-0.2,0-0.5,0-0.7,0.1
				c-0.4,0.1-0.6,0.3-0.9,0.5c-0.2,0.2-0.4,0.6-0.4,0.9c0,0.3,0.1,0.7,0.4,0.9c0.2,0.2,0.6,0.4,0.9,0.4c0.1,0,0.2,0,0.3,0
				c0.2-0.1,0.4-0.2,0.6-0.3c0,0,0,0,0.1,0c-0.1,0.1-0.2,0.1-0.3,0.2c0.1,0,0.1-0.1,0.2-0.1c-0.1,0-0.2,0.1-0.3,0.1
				c0.1,0,0.2-0.1,0.3-0.1c-0.1,0-0.2,0-0.3,0c0.1,0,0.2,0,0.3,0c-0.1,0-0.2,0-0.3,0c0.1,0,0.2,0,0.2,0.1c-0.1,0-0.2-0.1-0.3-0.1
				c0.1,0,0.2,0.1,0.2,0.1c-0.1-0.1-0.2-0.1-0.3-0.2c0.1,0.1,0.1,0.1,0.2,0.2c-0.1-0.1-0.1-0.2-0.2-0.3c0.1,0.1,0.1,0.2,0.1,0.2
				c0-0.1-0.1-0.2-0.1-0.3c0,0.1,0.1,0.3,0.1,0.4c0-0.1,0-0.2,0-0.3c0,0.1,0,0.3,0,0.4c0-0.1,0-0.2,0-0.3c0,0.1,0,0.2-0.1,0.3
				c0-0.1,0.1-0.2,0.1-0.3c0,0.1-0.1,0.2-0.1,0.2c0.1-0.1,0.1-0.2,0.2-0.3c-0.1,0.1-0.1,0.2-0.2,0.2c0.1-0.1,0.2-0.1,0.3-0.2
				c-0.1,0.1-0.2,0.2-0.4,0.2c0.1,0,0.2-0.1,0.3-0.1c-0.1,0.1-0.3,0.1-0.4,0.1c0.1,0,0.2,0,0.3,0c-0.1,0-0.2,0-0.3,0
				c0.1,0,0.2,0,0.3,0c-0.1,0-0.2,0-0.2-0.1c0.1,0,0.2,0.1,0.3,0.1c-0.1,0-0.1-0.1-0.2-0.1c0.1,0.1,0.2,0.1,0.3,0.2
				c0,0-0.1-0.1-0.1-0.1c0.1,0.1,0.1,0.2,0.2,0.3c0,0,0-0.1-0.1-0.1c0,0.1,0.1,0.2,0.1,0.3c0,0,0-0.1,0-0.1c0,0.1,0,0.2,0,0.3
				c0-0.1,0-0.1,0-0.2c0,0.1,0,0.2,0,0.3c0.1-0.4,0.2-0.8,0.3-1.2c0,0.1-0.1,0.2-0.1,0.3c0-0.1,0.1-0.2,0.2-0.3
				c-0.1,0.1-0.1,0.2-0.2,0.3c0-0.1,0.1-0.1,0.1-0.2c-0.1,0.1-0.2,0.1-0.3,0.2c0,0,0,0,0.1,0c0.3-0.2,0.5-0.4,0.6-0.7
				c0.1-0.3,0-0.7-0.1-1c-0.2-0.3-0.4-0.5-0.7-0.6C129.4,128.3,129.1,128.3,128.8,128.5L128.8,128.5z"/>
		</g>
	</g>
	<g>
		<g>
			<path d="M129.2,130.9c1.6,0,1.6-2.5,0-2.5C127.6,128.4,127.6,130.9,129.2,130.9L129.2,130.9z"/>
		</g>
	</g>
	<g>
		<g>
			<path d="M128.6,89.3c-0.3,0.2-0.5,0.4-0.7,0.7c-0.1,0.2-0.2,0.4-0.3,0.6c-0.1,0.3-0.2,0.6-0.2,0.9c-0.1,0.2-0.1,0.5-0.1,0.8
				c0,0.4,0.2,0.8,0.5,1.2c0.4,0.4,1,0.6,1.5,0.6c0.5,0,0.9-0.1,1.4-0.4c0.2-0.1,0.4-0.2,0.5-0.4c0.1-0.1,0.1-0.1,0.2-0.2
				c0.1-0.1,0.2-0.3,0.3-0.4c0.5-0.9,0.4-2.1-0.2-2.9c-0.2-0.2-0.4-0.4-0.7-0.6c-0.3-0.2-0.6-0.3-1-0.3c-0.2,0-0.5,0-0.7,0.1
				c-0.4,0.1-0.6,0.3-0.9,0.5c-0.2,0.2-0.4,0.6-0.4,0.9c0,0.3,0.1,0.7,0.4,0.9c0.2,0.2,0.6,0.4,0.9,0.4c0.1,0,0.2,0,0.3,0
				c0.2-0.1,0.4-0.2,0.6-0.3c0,0,0,0,0.1,0c-0.1,0.1-0.2,0.1-0.3,0.2c0.1,0,0.1-0.1,0.2-0.1c-0.1,0-0.2,0.1-0.3,0.1
				c0.1,0,0.2-0.1,0.3-0.1c-0.1,0-0.2,0-0.3,0c0.1,0,0.2,0,0.3,0c-0.1,0-0.2,0-0.3,0c0.1,0,0.2,0,0.2,0.1c-0.1,0-0.2-0.1-0.3-0.1
				c0.1,0,0.2,0.1,0.2,0.1c-0.1-0.1-0.2-0.1-0.3-0.2c0.1,0.1,0.1,0.1,0.2,0.2c-0.1-0.1-0.1-0.2-0.2-0.3c0.1,0.1,0.1,0.2,0.1,0.2
				c0-0.1-0.1-0.2-0.1-0.3c0,0.1,0.1,0.3,0.1,0.4c0-0.1,0-0.2,0-0.3c0,0.1,0,0.3,0,0.4c0-0.1,0-0.2,0-0.3c0,0.1,0,0.2-0.1,0.3
				c0-0.1,0.1-0.2,0.1-0.3c0,0.1-0.1,0.2-0.1,0.2c0.1-0.1,0.1-0.2,0.2-0.3c-0.1,0.1-0.1,0.2-0.2,0.2c0.1-0.1,0.2-0.1,0.3-0.2
				c-0.1,0.1-0.2,0.2-0.4,0.2c0.1,0,0.2-0.1,0.3-0.1c-0.1,0.1-0.3,0.1-0.4,0.1c0.1,0,0.2,0,0.3,0c-0.1,0-0.2,0-0.3,0
				c0.1,0,0.2,0,0.3,0c-0.1,0-0.2,0-0.2-0.1c0.1,0,0.2,0.1,0.3,0.1c-0.1,0-0.1-0.1-0.2-0.1c0.1,0.1,0.2,0.1,0.3,0.2
				c0,0-0.1-0.1-0.1-0.1c0.1,0.1,0.1,0.2,0.2,0.3c0,0,0-0.1-0.1-0.1c0,0.1,0.1,0.2,0.1,0.3c0,0,0-0.1,0-0.1c0,0.1,0,0.2,0,0.3
				c0-0.1,0-0.1,0-0.2c0,0.1,0,0.2,0,0.3c0.1-0.4,0.2-0.8,0.3-1.2c0,0.1-0.1,0.2-0.1,0.3c0-0.1,0.1-0.2,0.2-0.3
				c-0.1,0.1-0.1,0.2-0.2,0.3c0-0.1,0.1-0.1,0.1-0.2c-0.1,0.1-0.2,0.1-0.3,0.2c0,0,0,0,0.1,0c0.3-0.2,0.5-0.4,0.6-0.7
				c0.1-0.3,0-0.7-0.1-1c-0.2-0.3-0.4-0.5-0.7-0.6C129.2,89.1,128.8,89.1,128.6,89.3L128.6,89.3z"/>
		</g>
	</g>
	<g>
		<g>
			<path d="M129,91.7c1.6,0,1.6-2.5,0-2.5C127.4,89.2,127.4,91.7,129,91.7L129,91.7z"/>
		</g>
	</g>
	<g>
		<g>
			<path d="M130,49.3c-0.3,0.2-0.5,0.4-0.7,0.7c-0.1,0.2-0.2,0.4-0.3,0.6c-0.1,0.3-0.2,0.6-0.2,0.9c-0.1,0.2-0.1,0.5-0.1,0.8
				c0,0.4,0.2,0.8,0.5,1.2c0.4,0.4,1,0.6,1.5,0.6c0.5,0,0.9-0.1,1.4-0.4c0.2-0.1,0.4-0.2,0.5-0.4c0.1-0.1,0.1-0.1,0.2-0.2
				c0.1-0.1,0.2-0.3,0.3-0.4c0.5-0.9,0.4-2.1-0.2-2.9c-0.2-0.2-0.4-0.4-0.7-0.6c-0.3-0.2-0.6-0.3-1-0.3c-0.2,0-0.5,0-0.7,0.1
				c-0.4,0.1-0.6,0.3-0.9,0.5c-0.2,0.2-0.4,0.6-0.4,0.9c0,0.3,0.1,0.7,0.4,0.9c0.2,0.2,0.6,0.4,0.9,0.4c0.1,0,0.2,0,0.3,0
				c0.2-0.1,0.4-0.2,0.6-0.3c0,0,0,0,0.1,0c-0.1,0.1-0.2,0.1-0.3,0.2c0.1,0,0.1-0.1,0.2-0.1c-0.1,0-0.2,0.1-0.3,0.1
				c0.1,0,0.2-0.1,0.3-0.1c-0.1,0-0.2,0-0.3,0c0.1,0,0.2,0,0.3,0c-0.1,0-0.2,0-0.3,0c0.1,0,0.2,0,0.2,0.1c-0.1,0-0.2-0.1-0.3-0.1
				c0.1,0,0.2,0.1,0.2,0.1c-0.1-0.1-0.2-0.1-0.3-0.2c0.1,0.1,0.1,0.1,0.2,0.2c-0.1-0.1-0.1-0.2-0.2-0.3c0.1,0.1,0.1,0.2,0.1,0.2
				c0-0.1-0.1-0.2-0.1-0.3c0,0.1,0.1,0.3,0.1,0.4c0-0.1,0-0.2,0-0.3c0,0.1,0,0.3,0,0.4c0-0.1,0-0.2,0-0.3c0,0.1,0,0.2-0.1,0.3
				c0-0.1,0.1-0.2,0.1-0.3c0,0.1-0.1,0.2-0.1,0.2c0.1-0.1,0.1-0.2,0.2-0.3c-0.1,0.1-0.1,0.2-0.2,0.2c0.1-0.1,0.2-0.1,0.3-0.2
				c-0.1,0.1-0.2,0.2-0.4,0.2c0.1,0,0.2-0.1,0.3-0.1c-0.1,0.1-0.3,0.1-0.4,0.1c0.1,0,0.2,0,0.3,0c-0.1,0-0.2,0-0.3,0
				c0.1,0,0.2,0,0.3,0c-0.1,0-0.2,0-0.2-0.1c0.1,0,0.2,0.1,0.3,0.1c-0.1,0-0.1-0.1-0.2-0.1c0.1,0.1,0.2,0.1,0.3,0.2
				c0,0-0.1-0.1-0.1-0.1c0.1,0.1,0.1,0.2,0.2,0.3c0,0,0-0.1-0.1-0.1c0,0.1,0.1,0.2,0.1,0.3c0,0,0-0.1,0-0.1c0,0.1,0,0.2,0,0.3
				c0-0.1,0-0.1,0-0.2c0,0.1,0,0.2,0,0.3c0.1-0.4,0.2-0.8,0.3-1.2c0,0.1-0.1,0.2-0.1,0.3c0-0.1,0.1-0.2,0.2-0.3
				c-0.1,0.1-0.1,0.2-0.2,0.3c0-0.1,0.1-0.1,0.1-0.2c-0.1,0.1-0.2,0.1-0.3,0.2c0,0,0,0,0.1,0c0.3-0.2,0.5-0.4,0.6-0.7
				c0.1-0.3,0-0.7-0.1-1c-0.2-0.3-0.4-0.5-0.7-0.6C130.7,49.1,130.3,49.1,130,49.3L130,49.3z"/>
		</g>
	</g>
	<g>
		<g>
			<path d="M130.5,51.7c1.6,0,1.6-2.5,0-2.5C128.9,49.2,128.9,51.7,130.5,51.7L130.5,51.7z"/>
		</g>
	</g>
	<g>
		<g>
			<path d="M130.4,31.9c-0.3,0.2-0.5,0.4-0.7,0.7c-0.1,0.2-0.2,0.4-0.3,0.6c-0.1,0.3-0.2,0.6-0.2,0.9c-0.1,0.2-0.1,0.5-0.1,0.8
				c0,0.4,0.2,0.8,0.5,1.2c0.4,0.4,1,0.6,1.5,0.6c0.5,0,0.9-0.1,1.4-0.4c0.2-0.1,0.4-0.2,0.5-0.4c0.1-0.1,0.1-0.1,0.2-0.2
				c0.1-0.1,0.2-0.3,0.3-0.4c0.5-0.9,0.4-2.1-0.2-2.9c-0.2-0.2-0.4-0.4-0.7-0.6c-0.3-0.2-0.6-0.3-1-0.3c-0.2,0-0.5,0-0.7,0.1
				c-0.4,0.1-0.6,0.3-0.9,0.5c-0.2,0.2-0.4,0.6-0.4,0.9c0,0.3,0.1,0.7,0.4,0.9c0.2,0.2,0.6,0.4,0.9,0.4c0.1,0,0.2,0,0.3,0
				c0.2-0.1,0.4-0.2,0.6-0.3c0,0,0,0,0.1,0c-0.1,0.1-0.2,0.1-0.3,0.2c0.1,0,0.1-0.1,0.2-0.1c-0.1,0-0.2,0.1-0.3,0.1
				c0.1,0,0.2-0.1,0.3-0.1c-0.1,0-0.2,0-0.3,0c0.1,0,0.2,0,0.3,0c-0.1,0-0.2,0-0.3,0c0.1,0,0.2,0,0.2,0.1c-0.1,0-0.2-0.1-0.3-0.1
				c0.1,0,0.2,0.1,0.2,0.1c-0.1-0.1-0.2-0.1-0.3-0.2c0.1,0.1,0.1,0.1,0.2,0.2c-0.1-0.1-0.1-0.2-0.2-0.3c0.1,0.1,0.1,0.2,0.1,0.2
				c0-0.1-0.1-0.2-0.1-0.3c0,0.1,0.1,0.3,0.1,0.4c0-0.1,0-0.2,0-0.3c0,0.1,0,0.3,0,0.4c0-0.1,0-0.2,0-0.3c0,0.1,0,0.2-0.1,0.3
				c0-0.1,0.1-0.2,0.1-0.3c0,0.1-0.1,0.2-0.1,0.2c0.1-0.1,0.1-0.2,0.2-0.3c-0.1,0.1-0.1,0.2-0.2,0.2c0.1-0.1,0.2-0.1,0.3-0.2
				c-0.1,0.1-0.2,0.2-0.4,0.2c0.1,0,0.2-0.1,0.3-0.1c-0.1,0.1-0.3,0.1-0.4,0.1c0.1,0,0.2,0,0.3,0c-0.1,0-0.2,0-0.3,0
				c0.1,0,0.2,0,0.3,0c-0.1,0-0.2,0-0.2-0.1c0.1,0,0.2,0.1,0.3,0.1c-0.1,0-0.1-0.1-0.2-0.1c0.1,0.1,0.2,0.1,0.3,0.2
				c0,0-0.1-0.1-0.1-0.1c0.1,0.1,0.1,0.2,0.2,0.3c0,0,0-0.1-0.1-0.1c0,0.1,0.1,0.2,0.1,0.3c0,0,0-0.1,0-0.1c0,0.1,0,0.2,0,0.3
				c0-0.1,0-0.1,0-0.2c0,0.1,0,0.2,0,0.3c0.1-0.4,0.2-0.8,0.3-1.2c0,0.1-0.1,0.2-0.1,0.3c0-0.1,0.1-0.2,0.2-0.3
				c-0.1,0.1-0.1,0.2-0.2,0.3c0-0.1,0.1-0.1,0.1-0.2c-0.1,0.1-0.2,0.1-0.3,0.2c0,0,0,0,0.1,0c0.3-0.2,0.5-0.4,0.6-0.7
				c0.1-0.3,0-0.7-0.1-1c-0.2-0.3-0.4-0.5-0.7-0.6C131,31.7,130.6,31.7,130.4,31.9L130.4,31.9z"/>
		</g>
	</g>
	<g>
		<g>
			<path d="M130.8,34.3c1.6,0,1.6-2.5,0-2.5C129.2,31.8,129.2,34.3,130.8,34.3L130.8,34.3z"/>
		</g>
	</g>
	<g>
		<g>
			<path d="M60.2,59.4c-0.3,0.2-0.5,0.4-0.7,0.7c-0.1,0.2-0.2,0.4-0.3,0.6c-0.1,0.3-0.2,0.6-0.2,0.9c-0.1,0.2-0.1,0.5-0.1,0.8
				c0,0.4,0.2,0.8,0.5,1.2c0.4,0.4,1,0.6,1.5,0.6c0.5,0,0.9-0.1,1.4-0.4c0.2-0.1,0.4-0.2,0.5-0.4c0.1-0.1,0.1-0.1,0.2-0.2
				c0.1-0.1,0.2-0.3,0.3-0.4c0.5-0.9,0.4-2.1-0.2-2.9c-0.2-0.2-0.4-0.4-0.7-0.6c-0.3-0.2-0.6-0.3-1-0.3c-0.2,0-0.5,0-0.7,0.1
				c-0.4,0.1-0.6,0.3-0.9,0.5c-0.2,0.2-0.4,0.6-0.4,0.9c0,0.3,0.1,0.7,0.4,0.9c0.2,0.2,0.6,0.4,0.9,0.4c0.1,0,0.2,0,0.3,0
				c0.2-0.1,0.4-0.2,0.6-0.3c0,0,0,0,0.1,0c-0.1,0.1-0.2,0.1-0.3,0.2c0.1,0,0.1-0.1,0.2-0.1c-0.1,0-0.2,0.1-0.3,0.1
				c0.1,0,0.2-0.1,0.3-0.1c-0.1,0-0.2,0-0.3,0c0.1,0,0.2,0,0.3,0c-0.1,0-0.2,0-0.3,0c0.1,0,0.2,0,0.2,0.1c-0.1,0-0.2-0.1-0.3-0.1
				c0.1,0,0.2,0.1,0.2,0.1c-0.1-0.1-0.2-0.1-0.3-0.2c0.1,0.1,0.1,0.1,0.2,0.2c-0.1-0.1-0.1-0.2-0.2-0.3c0.1,0.1,0.1,0.2,0.1,0.2
				c0-0.1-0.1-0.2-0.1-0.3c0,0.1,0.1,0.3,0.1,0.4c0-0.1,0-0.2,0-0.3c0,0.1,0,0.3,0,0.4c0-0.1,0-0.2,0-0.3c0,0.1,0,0.2-0.1,0.3
				c0-0.1,0.1-0.2,0.1-0.3c0,0.1-0.1,0.2-0.1,0.2c0.1-0.1,0.1-0.2,0.2-0.3c-0.1,0.1-0.1,0.2-0.2,0.2c0.1-0.1,0.2-0.1,0.3-0.2
				c-0.1,0.1-0.2,0.2-0.4,0.2c0.1,0,0.2-0.1,0.3-0.1c-0.1,0.1-0.3,0.1-0.4,0.1c0.1,0,0.2,0,0.3,0c-0.1,0-0.2,0-0.3,0
				c0.1,0,0.2,0,0.3,0c-0.1,0-0.2,0-0.2-0.1c0.1,0,0.2,0.1,0.3,0.1c-0.1,0-0.1-0.1-0.2-0.1c0.1,0.1,0.2,0.1,0.3,0.2
				c0,0-0.1-0.1-0.1-0.1c0.1,0.1,0.1,0.2,0.2,0.3c0,0,0-0.1-0.1-0.1c0,0.1,0.1,0.2,0.1,0.3c0,0,0-0.1,0-0.1c0,0.1,0,0.2,0,0.3
				c0-0.1,0-0.1,0-0.2c0,0.1,0,0.2,0,0.3c0.1-0.4,0.2-0.8,0.3-1.2c0,0.1-0.1,0.2-0.1,0.3c0-0.1,0.1-0.2,0.2-0.3
				c-0.1,0.1-0.1,0.2-0.2,0.3c0-0.1,0.1-0.1,0.1-0.2c-0.1,0.1-0.2,0.1-0.3,0.2c0,0,0,0,0.1,0c0.3-0.2,0.5-0.4,0.6-0.7
				c0.1-0.3,0-0.7-0.1-1c-0.2-0.3-0.4-0.5-0.7-0.6C60.9,59.2,60.5,59.3,60.2,59.4L60.2,59.4z"/>
		</g>
	</g>
	<g>
		<g>
			<path d="M60.7,61.9c1.6,0,1.6-2.5,0-2.5C59.1,59.4,59.1,61.9,60.7,61.9L60.7,61.9z"/>
		</g>
	</g>
	<g>
		<g>
			<path d="M76.3,70.1c-0.3,0.2-0.5,0.4-0.7,0.7c-0.1,0.2-0.2,0.4-0.3,0.6c-0.1,0.3-0.2,0.6-0.2,0.9C75,72.6,75,72.8,75,73.1
				c0,0.4,0.2,0.8,0.5,1.2c0.4,0.4,1,0.6,1.5,0.6c0.5,0,0.9-0.1,1.4-0.4c0.2-0.1,0.4-0.2,0.5-0.4c0.1-0.1,0.1-0.1,0.2-0.2
				c0.1-0.1,0.2-0.3,0.3-0.4c0.5-0.9,0.4-2.1-0.2-2.9c-0.2-0.2-0.4-0.4-0.7-0.6c-0.3-0.2-0.6-0.3-1-0.3c-0.2,0-0.5,0-0.7,0.1
				c-0.4,0.1-0.6,0.3-0.9,0.5c-0.2,0.2-0.4,0.6-0.4,0.9c0,0.3,0.1,0.7,0.4,0.9c0.2,0.2,0.6,0.4,0.9,0.4c0.1,0,0.2,0,0.3,0
				c0.2-0.1,0.4-0.2,0.6-0.3c0,0,0,0,0.1,0c-0.1,0.1-0.2,0.1-0.3,0.2c0.1,0,0.1-0.1,0.2-0.1c-0.1,0-0.2,0.1-0.3,0.1
				c0.1,0,0.2-0.1,0.3-0.1c-0.1,0-0.2,0-0.3,0c0.1,0,0.2,0,0.3,0c-0.1,0-0.2,0-0.3,0c0.1,0,0.2,0,0.2,0.1c-0.1,0-0.2-0.1-0.3-0.1
				c0.1,0,0.2,0.1,0.2,0.1c-0.1-0.1-0.2-0.1-0.3-0.2c0.1,0.1,0.1,0.1,0.2,0.2c-0.1-0.1-0.1-0.2-0.2-0.3c0.1,0.1,0.1,0.2,0.1,0.2
				c0-0.1-0.1-0.2-0.1-0.3c0,0.1,0.1,0.3,0.1,0.4c0-0.1,0-0.2,0-0.3c0,0.1,0,0.3,0,0.4c0-0.1,0-0.2,0-0.3c0,0.1,0,0.2-0.1,0.3
				c0-0.1,0.1-0.2,0.1-0.3c0,0.1-0.1,0.2-0.1,0.2c0.1-0.1,0.1-0.2,0.2-0.3c-0.1,0.1-0.1,0.2-0.2,0.2c0.1-0.1,0.2-0.1,0.3-0.2
				c-0.1,0.1-0.2,0.2-0.4,0.2c0.1,0,0.2-0.1,0.3-0.1c-0.1,0.1-0.3,0.1-0.4,0.1c0.1,0,0.2,0,0.3,0c-0.1,0-0.2,0-0.3,0
				c0.1,0,0.2,0,0.3,0c-0.1,0-0.2,0-0.2-0.1c0.1,0,0.2,0.1,0.3,0.1c-0.1,0-0.1-0.1-0.2-0.1c0.1,0.1,0.2,0.1,0.3,0.2
				c0,0-0.1-0.1-0.1-0.1c0.1,0.1,0.1,0.2,0.2,0.3c0,0,0-0.1-0.1-0.1c0,0.1,0.1,0.2,0.1,0.3c0,0,0-0.1,0-0.1c0,0.1,0,0.2,0,0.3
				c0-0.1,0-0.1,0-0.2c0,0.1,0,0.2,0,0.3c0.1-0.4,0.2-0.8,0.3-1.2c0,0.1-0.1,0.2-0.1,0.3c0-0.1,0.1-0.2,0.2-0.3
				c-0.1,0.1-0.1,0.2-0.2,0.3c0-0.1,0.1-0.1,0.1-0.2c-0.1,0.1-0.2,0.1-0.3,0.2c0,0,0,0,0.1,0c0.3-0.2,0.5-0.4,0.6-0.7
				c0.1-0.3,0-0.7-0.1-1c-0.2-0.3-0.4-0.5-0.7-0.6C77,69.9,76.6,69.9,76.3,70.1L76.3,70.1z"/>
		</g>
	</g>
	<g>
		<g>
			<path d="M76.8,72.6c1.6,0,1.6-2.5,0-2.5C75.2,70.1,75.1,72.6,76.8,72.6L76.8,72.6z"/>
		</g>
	</g>
	<g>
		<g>
			<path d="M190.9,71.5c-0.3,0.2-0.5,0.4-0.7,0.7c-0.1,0.2-0.2,0.4-0.3,0.6c-0.1,0.3-0.2,0.6-0.2,0.9c-0.1,0.2-0.1,0.5-0.1,0.8
				c0,0.4,0.2,0.8,0.5,1.2c0.4,0.4,1,0.6,1.5,0.6c0.5,0,0.9-0.1,1.4-0.4c0.2-0.1,0.4-0.2,0.5-0.4c0.1-0.1,0.1-0.1,0.2-0.2
				c0.1-0.1,0.2-0.3,0.3-0.4c0.5-0.9,0.4-2.1-0.2-2.9c-0.2-0.2-0.4-0.4-0.7-0.6c-0.3-0.2-0.6-0.3-1-0.3c-0.2,0-0.5,0-0.7,0.1
				c-0.4,0.1-0.6,0.3-0.9,0.5c-0.2,0.2-0.4,0.6-0.4,0.9c0,0.3,0.1,0.7,0.4,0.9c0.2,0.2,0.6,0.4,0.9,0.4c0.1,0,0.2,0,0.3,0
				c0.2-0.1,0.4-0.2,0.6-0.3c0,0,0,0,0.1,0c-0.1,0.1-0.2,0.1-0.3,0.2c0.1,0,0.1-0.1,0.2-0.1c-0.1,0-0.2,0.1-0.3,0.1
				c0.1,0,0.2-0.1,0.3-0.1c-0.1,0-0.2,0-0.3,0c0.1,0,0.2,0,0.3,0c-0.1,0-0.2,0-0.3,0c0.1,0,0.2,0,0.2,0.1c-0.1,0-0.2-0.1-0.3-0.1
				c0.1,0,0.2,0.1,0.2,0.1c-0.1-0.1-0.2-0.1-0.3-0.2c0.1,0.1,0.1,0.1,0.2,0.2c-0.1-0.1-0.1-0.2-0.2-0.3c0.1,0.1,0.1,0.2,0.1,0.2
				c0-0.1-0.1-0.2-0.1-0.3c0,0.1,0.1,0.3,0.1,0.4c0-0.1,0-0.2,0-0.3c0,0.1,0,0.3,0,0.4c0-0.1,0-0.2,0-0.3c0,0.1,0,0.2-0.1,0.3
				c0-0.1,0.1-0.2,0.1-0.3c0,0.1-0.1,0.2-0.1,0.2c0.1-0.1,0.1-0.2,0.2-0.3c-0.1,0.1-0.1,0.2-0.2,0.2c0.1-0.1,0.2-0.1,0.3-0.2
				c-0.1,0.1-0.2,0.2-0.4,0.2c0.1,0,0.2-0.1,0.3-0.1c-0.1,0.1-0.3,0.1-0.4,0.1c0.1,0,0.2,0,0.3,0c-0.1,0-0.2,0-0.3,0
				c0.1,0,0.2,0,0.3,0c-0.1,0-0.2,0-0.2-0.1c0.1,0,0.2,0.1,0.3,0.1c-0.1,0-0.1-0.1-0.2-0.1c0.1,0.1,0.2,0.1,0.3,0.2
				c0,0-0.1-0.1-0.1-0.1c0.1,0.1,0.1,0.2,0.2,0.3c0,0,0-0.1-0.1-0.1c0,0.1,0.1,0.2,0.1,0.3c0,0,0-0.1,0-0.1c0,0.1,0,0.2,0,0.3
				c0-0.1,0-0.1,0-0.2c0,0.1,0,0.2,0,0.3c0.1-0.4,0.2-0.8,0.3-1.2c0,0.1-0.1,0.2-0.1,0.3c0-0.1,0.1-0.2,0.2-0.3
				c-0.1,0.1-0.1,0.2-0.2,0.3c0-0.1,0.1-0.1,0.1-0.2c-0.1,0.1-0.2,0.1-0.3,0.2c0,0,0,0,0.1,0c0.3-0.2,0.5-0.4,0.6-0.7
				c0.1-0.3,0-0.7-0.1-1c-0.2-0.3-0.4-0.5-0.7-0.6C191.5,71.3,191.2,71.3,190.9,71.5L190.9,71.5z"/>
		</g>
	</g>
	<g>
		<g>
			<path d="M191.3,73.9c1.6,0,1.6-2.5,0-2.5C189.7,71.4,189.7,73.9,191.3,73.9L191.3,73.9z"/>
		</g>
	</g>
	<g>
		<g>
			<path d="M206,60.3c-0.3,0.2-0.5,0.4-0.7,0.7c-0.1,0.2-0.2,0.4-0.3,0.6c-0.1,0.3-0.2,0.6-0.2,0.9c-0.1,0.2-0.1,0.5-0.1,0.8
				c0,0.4,0.2,0.8,0.5,1.2c0.4,0.4,1,0.6,1.5,0.6c0.5,0,0.9-0.1,1.4-0.4c0.2-0.1,0.4-0.2,0.5-0.4c0.1-0.1,0.1-0.1,0.2-0.2
				c0.1-0.1,0.2-0.3,0.3-0.4c0.5-0.9,0.4-2.1-0.2-2.9c-0.2-0.2-0.4-0.4-0.7-0.6c-0.3-0.2-0.6-0.3-1-0.3c-0.2,0-0.5,0-0.7,0.1
				c-0.4,0.1-0.6,0.3-0.9,0.5c-0.2,0.2-0.4,0.6-0.4,0.9c0,0.3,0.1,0.7,0.4,0.9c0.2,0.2,0.6,0.4,0.9,0.4c0.1,0,0.2,0,0.3,0
				c0.2-0.1,0.4-0.2,0.6-0.3c0,0,0,0,0.1,0c-0.1,0.1-0.2,0.1-0.3,0.2c0.1,0,0.1-0.1,0.2-0.1c-0.1,0-0.2,0.1-0.3,0.1
				c0.1,0,0.2-0.1,0.3-0.1c-0.1,0-0.2,0-0.3,0c0.1,0,0.2,0,0.3,0c-0.1,0-0.2,0-0.3,0c0.1,0,0.2,0,0.2,0.1c-0.1,0-0.2-0.1-0.3-0.1
				c0.1,0,0.2,0.1,0.2,0.1c-0.1-0.1-0.2-0.1-0.3-0.2c0.1,0.1,0.1,0.1,0.2,0.2c-0.1-0.1-0.1-0.2-0.2-0.3c0.1,0.1,0.1,0.2,0.1,0.2
				c0-0.1-0.1-0.2-0.1-0.3c0,0.1,0.1,0.3,0.1,0.4c0-0.1,0-0.2,0-0.3c0,0.1,0,0.3,0,0.4c0-0.1,0-0.2,0-0.3c0,0.1,0,0.2-0.1,0.3
				c0-0.1,0.1-0.2,0.1-0.3c0,0.1-0.1,0.2-0.1,0.2c0.1-0.1,0.1-0.2,0.2-0.3c-0.1,0.1-0.1,0.2-0.2,0.2c0.1-0.1,0.2-0.1,0.3-0.2
				c-0.1,0.1-0.2,0.2-0.4,0.2c0.1,0,0.2-0.1,0.3-0.1c-0.1,0.1-0.3,0.1-0.4,0.1c0.1,0,0.2,0,0.3,0c-0.1,0-0.2,0-0.3,0
				c0.1,0,0.2,0,0.3,0c-0.1,0-0.2,0-0.2-0.1c0.1,0,0.2,0.1,0.3,0.1c-0.1,0-0.1-0.1-0.2-0.1c0.1,0.1,0.2,0.1,0.3,0.2
				c0,0-0.1-0.1-0.1-0.1c0.1,0.1,0.1,0.2,0.2,0.3c0,0,0-0.1-0.1-0.1c0,0.1,0.1,0.2,0.1,0.3c0,0,0-0.1,0-0.1c0,0.1,0,0.2,0,0.3
				c0-0.1,0-0.1,0-0.2c0,0.1,0,0.2,0,0.3c0.1-0.4,0.2-0.8,0.3-1.2c0,0.1-0.1,0.2-0.1,0.3c0-0.1,0.1-0.2,0.2-0.3
				c-0.1,0.1-0.1,0.2-0.2,0.3c0-0.1,0.1-0.1,0.1-0.2c-0.1,0.1-0.2,0.1-0.3,0.2c0,0,0,0,0.1,0c0.3-0.2,0.5-0.4,0.6-0.7
				c0.1-0.3,0-0.7-0.1-1c-0.2-0.3-0.4-0.5-0.7-0.6C206.6,60.1,206.3,60.1,206,60.3L206,60.3z"/>
		</g>
	</g>
	<g>
		<g>
			<path d="M206.4,62.7c1.6,0,1.6-2.5,0-2.5C204.8,60.2,204.8,62.7,206.4,62.7L206.4,62.7z"/>
		</g>
	</g>
</g>
<g id="Layer_2">
</g>
</svg>
