<?xml version="1.0" encoding="UTF-8"?><svg id="Capa_1" xmlns="http://www.w3.org/2000/svg" viewBox="0 0 187.22 356.05"><defs><style>.cls-1{fill:none;stroke:#010101;stroke-miterlimit:10;stroke-width:2px;}</style></defs><path class="cls-1" d="m29.85,310.44s2.06,3.85-3.01,5.99c-5.07,2.14-6.67,2.14-6.51,5.34s.26,13.04.26,13.04c0,0,8.78.86,9.26,0s1.55-5.8,1.12-9.74,1.74-13.77,1.74-13.77"/><g><path class="cls-1" d="m39.05,21.91c7.84-4.17,14.18,1.84,38.81,8.05,0,0-4.16,6.08-1.71,6.82s.49-1.26,3.42-2.34,3.42-.59,4.4-1.57.49-1.71,2.2-1.47-.49,3.14,2.94,3.04c3.42-.1,16.63-6.24,17.61-4.28s1.22,6.77,1.22,6.77c0,0,3.67-2.39,5.38-2.5s3.3,1.68,6.3,2.5c3,.82,2.51.89,5.2,0s.73,3.89,4.16.64c3.42-3.25,6.36-4.75,8.07-3.14s1.22,8.19,2.45,4.29-1.22-5.81,1.71-7.06c2.94-1.25,6.6-2.16,8.56-1.7s3.91.5,2.2,1.7-1.96,2.63-1.96,2.77,2.61,11.64,2.61,11.64c0,0,1.3-1.96-4.08,0s-14.19,6.36-16.39,6.6-10.76,2.2-13.94,0-7.83-6.36-11.98-6.36-10.27.49-12.23,1.71-10.52,3.42-12.72,2.45-.98-2.94-3.18-3.18-1.71.24-5.14-.24c-3.42-.49-6.36-1.71-9.54-2.69s-10.27-4.28-16.39-5.81c-6.11-1.53-11.5-2.75-11.5-2.75,1.05,2.36-.47-3.78,0-8.07.41-3.77,2.69.98,3.67-.98s-.16-4.84-.16-4.84Z"/><path class="cls-1" d="m107.94,36.94s-2.2,11.09-3.42,13.29-2.69,11.01-2.69,11.01c0,0-1.71,7.34-1.96,11.01s0,13.45,0,14.43-1.71,24.13-1.71,24.13c0,0,3.18.08,5.01-1.63s3.79-4.4,3.79-4.4c0,0-.98-8.07-.49-9.54s1.71-8.56,1.71-8.56c0,0-.98-9.07,0-12s0-13.69,0-13.69c0,0,.24-7.83,1.71-8.56s2.14-2.35,2.9-3.62,5.28-12.41,5.28-12.41"/><path class="cls-1" d="m152.62,46.08c-2.07-2.35,5.38,64.28,6.55,77.84,1.09,12.61,0,34.98,0,34.98,0,0-.79,10.05.17,14.89s-4.09,37.96-4.18,40.94-1.66,74.81.06,78.53-7.96,8.93-7.96,8.93l-17.86,13.77s-10.13,4.02-13.03,3.72c-2.68-.28-6.32-6.2-5.95-7.07l-6.7-36.55s-2.08-43.4,0-45.33c4.03-11.73,2.93-89.51-.5-87.83-5.53,7.61-14.37,74.06-12.9,74.91.97,6.95-6.11,41.65-7.44,45.3-1.83,5.01-1.95,15.85-1.57,20.82s3.57,22.98,2.69,24.96c-2.22,5.02-4.72,12.97-4.14,11.29.92,1.06-12.71,10.69-19.68,9.6-4.76-.74-20.47-10.47-20.47-10.47,0,0-13.03-10.79-15.63-11.54s4.09-7.07,5.58-9.3,2.98-16.75,2.98-16.75l-4.84-37.22-2.23-72.32.74-46.4,3.72-42.43,5.51-47.54"/><path class="cls-1" d="m43.47,164.98l-6.24,6.47c-.44.45-1.07.67-1.69.58l-9.91-1.41c-1.92-.17-3.28-1.27-2.19-2.42l2.33-9.17,17.41,2.4c1.11.15,1.68,1.41,1.07,2.34l-.78,1.19s5.58,24.74,5.58,28.58c0,3.06,2.66,20.06,3.74,26.84.3,1.86.38,3.75.25,5.63l-1.89,27.47s-9.33-1.39-11.64-3.48c-2.3-2.09-4.74-3.48-4.74-3.48l-6.96-2.03"/><path class="cls-1" d="m39.5,168.82s1.18,10.22,3.62,16.96,3.83,15.1,3.83,15.1l1.74,16.93,2.44,35.69"/><path class="cls-1" d="m25.63,170.63s-1.15,21.44-2.15,28.15c-1,6.71-1.58,38.97-1.58,38.97,0,0,.02,25.31-1.31,27.46s2.89,3.03,2.89,3.03c0,0,3.38-5.84,2.5-13.13s.86-41.45.86-41.45"/><path class="cls-1" d="m147.25,157.97l11.96-.99,2.45,7.31c.25.75.07,1.58-.48,2.15l-.66.69c-.76.79-2.07.61-2.57-.37-.7-1.37-1.72-3.06-2.78-3.86-1.32-1-4.49-1.68-6.4-2.02-.88-.15-1.52-.92-1.52-1.81v-1.1Z"/><path class="cls-1" d="m148.03,160.57s-6.17,21.72-6.31,25.21c-.14,3.38-3.14,18.5-3.93,21.23-.88,3.04-8.79,32.71-6.75,33.69s8.17-4.83,9.92-2.95,7.88.74,8.75,0,5.06-3.07,5.06-3.07"/><path class="cls-1" d="m152.41,161.71s-10.19,35.03-9.65,37.07-11.72,41.92-11.72,41.92"/><path class="cls-1" d="m158.95,183.45s2.58,19.38,3.12,22.82,6.25,20.31,2.67,22.9c-3.25,2.35-5.89,23.99-4.54,25.59h-3.83c-.3-.94,1.39-14.63,1.71-15.73.87-3.01,3.34-11.61,3.99-10.96-.48.68,1.63-3.02,0-10.27-1.35-6.01-4.53-22.01-4.53-22.01"/><path class="cls-1" d="m86.95,39.17s-.53-.97-1.18-.62-2.89,4.03-2.36,4.56,1.18.53,1.18.53c0,0-.74.79.55,1.45s3.39.53,3.78,0,1.71-3.55,1.31-4.47-3.28-1.45-3.28-1.45Z"/><path class="cls-1" d="m122.29,40.88v1.12s-2.36,2.53-1.71,3.53,4.86,2.18,5.65,1.26,1.97-2.23,1.97-2.23c0,0-.39-1.45-.92-1.84s-.79-1.84-.79-1.84h-4.2Z"/><path class="cls-1" d="m88.06,42s4.48,10.1,3.41,26.13-2.32,45.26-2.32,45.26c0,0-5.6,28.52-4.51,30.23s-.47,9.42,5.91,8.44,9.03-3.77,8.87-6.89-3.42-29.33-4.05-31.79-5.91-36.08-5.91-36.08c0,0-.62-14.01-.62-16.81s-1.56-16.51-1.56-16.51"/><path class="cls-1" d="m123.23,44s2.38,21.5,0,34.68-3.62,39.38-3.62,39.38c0,0-3.08,12.7-2.65,15.08s1.77,12.97,7.37,11.02,11.86-7.68,10.35-13.35-3.67-25.12-5.4-30.73-.44-19.23-1.08-21.82-2.28-34.25-2.28-34.25"/><path class="cls-1" d="m71.22,47.12s0,18.22-2.1,29.25c-2.1,11.03-6.83,55.15-6.83,60.4s.53,59.18,2.1,66.1c1.58,6.91,3.68,45.5,2.36,50.63s-1.31,51.35-4.46,55.55c-3.15,4.2-8.19,18.36-8.19,18.36"/><path class="cls-1" d="m131.12,314.63l-3.26-29.27c-.17-1.54-.17-3.09.02-4.63.7-5.83,2.28-21.61.05-29.61-2.76-9.92-1.14-67.72-1.14-67.72l2.28-74.97s2.33-24.92,2.54-29.22-3.88-25.79-3.88-25.79"/><path class="cls-1" d="m34.18,283.29c1.28.43,3.21-1.94,2.99,1.28s-1.04,4.71.02,5.14,1.92,2.35,1.17,3.21-3.35,1.07-1.95,1.92,2.63.86,2.23,2.57.04,1.09-.29,2.9,1.18,1.81,0,3.3-2.75,1.92-1.86,3.21,4.11,1.07,1.86,2.78-5.25.86-4.18,2.35-.22,4.49-.22,4.49"/><path class="cls-1" d="m32.04,294.19c.43.86.43,1.71,0,3.63s-.86-.64-.43,1.92,1.71,1.92.75,3.63.39.43-.93,2.35,1.8.13-1.32,1.92l-3.12,1.79"/><path class="cls-1" d="m154.43,268.21s-7.58-.31-6.72,1.82,3.66,2.78,1.83,3.63-2.47.5-1.93,2.39,1.6,1.46.75,3.38-.79,2.75-.93,3.41-.07-.86,0,1.72-1.31,2.5-.08,4.25,1.97-.18,1.81,2.17-1.87-.86-.16,2.35c1.71,3.21,3.47,2.78,2.48,4.06s-.26,2.24-.26,2.24"/><path class="cls-1" d="m152.39,298.7s-.04,11.1,2.77,14.95c2.81,3.85,18.84,20.91,17.13,22.54s.43,5.47-4.28-2.23c-4.7-7.7-14.5-36.31-14.5-36.31"/></g></svg>