<?xml version="1.0" encoding="utf-8"?>
<!-- Generator: Adobe Illustrator 27.2.0, SVG Export Plug-In . SVG Version: 6.00 Build 0)  -->
<svg version="1.1" id="Layer_1_xA0_Image_00000026875155686081866470000008499044405816571299_"
	 xmlns="http://www.w3.org/2000/svg" xmlns:xlink="http://www.w3.org/1999/xlink" x="0px" y="0px" viewBox="0 0 396.1 435.3"
	 style="enable-background:new 0 0 396.1 435.3;" xml:space="preserve">
<style type="text/css">
	.st0{fill:#12100B;}
</style>
<g>
	<g>
		<path class="st0" d="M144.3,38.7c-0.1,8.2,5.4,15.5,11.5,20.6c6.3,5.3,13.9,8.7,21.8,10.8c4.3,1.2,8.7,1.9,13.1,2.5
			c4.4,0.6,8.8,1.1,13.2,0.6c8.2-0.9,14.7-5.5,20.3-11.3c3-3.2,5.9-6.5,8.7-9.9c3-3.7,5.6-7.6,7.2-12.1c0.4-1.3-0.5-2.7-1.7-3.1
			c-1.4-0.4-2.6,0.5-3.1,1.7c-2.4,6.8-7.8,12.4-12.5,17.7c-4.5,5-9.6,9.9-16.3,11.6c-3.9,1-7.9,0.8-11.8,0.3c-4-0.4-8.1-1.1-12.1-2
			c-7.4-1.6-14.6-4.2-20.9-8.6c-6-4.2-12.5-11-12.4-18.8C149.3,35.5,144.3,35.5,144.3,38.7L144.3,38.7z"/>
	</g>
</g>
<g>
	<g>
		<path class="st0" d="M237.9,36.2c-12.3-1.5-23.8,4.2-35.7,6.3c-6.3,1.1-12.8,1-19.2,1c-5.8,0-11.7-0.2-17.5-1.4
			c-3.2-0.7-6.4-1.7-9.3-3.1c-3-1.5-5.9-3.2-9.2-4c-3.1-0.7-4.5,4.1-1.3,4.8c2.9,0.7,5.4,2.2,8,3.5c2.7,1.3,5.5,2.4,8.4,3.1
			c5.9,1.5,12.1,1.9,18.3,2c6.4,0.1,12.9,0.2,19.3-0.5c6.3-0.8,12.3-2.6,18.4-4.2c6.5-1.8,13.1-3.3,20-2.5c1.3,0.2,2.5-1.3,2.5-2.5
			C240.4,37.2,239.3,36.4,237.9,36.2L237.9,36.2z"/>
	</g>
</g>
<g>
	<g>
		<path class="st0" d="M154.7,54.3c18.5,0.8,37.1,1.5,55.6,2c5.2,0.1,10.5,0.3,15.7,0.4c3.2,0.1,3.2-4.9,0-5
			c-18.6-0.4-37.1-1-55.6-1.7c-5.2-0.2-10.5-0.4-15.7-0.7C151.5,49.1,151.5,54.1,154.7,54.3L154.7,54.3z"/>
	</g>
</g>
<g>
	<g>
		<path class="st0" d="M146.5,35.4c-2.6,0.3-5.2,1-7.5,2.3c-2.1,1.2-5,3.2-5.5,5.7c-0.3,1.4,0.3,2.7,0.9,4c0.6,1.3,1.3,2.6,1.9,3.8
			c1.3,2.4,2.7,4.7,4.2,7c3.1,4.7,6.4,9.2,11.1,12.6c4.3,3.1,9.4,5.3,14.4,7.3c9.9,3.9,20.8,6.3,31.4,5.5
			c10.8-0.8,20.4-5.1,28.9-11.7c4.6-3.6,8.7-7.6,12.6-11.9c4.1-4.5,7.9-9.3,10.3-14.9c0.5-1.3,0.4-2.7-0.9-3.4
			c-3.1-1.9-6.2-3.8-9.4-5.6c-2.8-1.7-5.3,2.7-2.5,4.3c3.1,1.9,6.2,3.8,9.4,5.6c-0.3-1.1-0.6-2.3-0.9-3.4c-1.9,4.4-4.6,8.3-7.8,11.9
			c-3.1,3.6-6.5,7-10,10.2c-7,6.2-15,11.2-24.2,13.1c-9.4,1.9-19.2,0.7-28.3-2c-4.6-1.4-9-3.1-13.3-5.2c-4.4-2.1-8.5-4.6-11.6-8.3
			c-3.6-4.2-6.6-9.1-9.2-14c-0.6-1.2-1.1-2.8-1.9-3.9c-0.2-0.3,0-0.4-0.2-0.1c-0.2,0.5,0.3-0.1,0.4-0.2c0.4-0.4,0.8-0.8,1.3-1.2
			c1.9-1.4,4.1-2.4,6.5-2.6c1.3-0.1,2.5-1,2.5-2.5C149,36.7,147.9,35.3,146.5,35.4L146.5,35.4z"/>
	</g>
</g>
<g>
	<g>
		<path class="st0" d="M136.4,39c-3,2.5-6.7,4-10.1,5.8c-3.6,1.9-7.2,4-10.7,6.2c-7.1,4.4-14,9-21.2,13.2c-3.6,2.1-7.2,4-10.9,5.8
			c-3.5,1.7-7.1,3.4-9.7,6.4c-2.5,2.9-4.1,6.3-5.6,9.7c-1.8,4.2-3.5,8.3-5.3,12.5C59,108,55.2,117.5,51.6,127
			c-0.5,1.3,0.5,2.7,1.7,3.1c1.4,0.4,2.6-0.5,3.1-1.7c3.2-8.3,6.4-16.6,9.8-24.9c1.7-4,3.3-8.1,5-12.1c1.5-3.5,2.9-7.2,5.1-10.4
			c2.1-3.1,5.2-4.7,8.5-6.3c3.6-1.7,7.2-3.5,10.7-5.5c7.1-4,13.9-8.6,20.9-12.9c3.9-2.4,7.8-4.8,11.8-6.9c4-2.1,8.1-4,11.7-6.9
			c1-0.9,0.9-2.6,0-3.5C138.9,37.9,137.5,38.1,136.4,39L136.4,39z"/>
	</g>
</g>
<g>
	<g>
		<path class="st0" d="M51.6,127.2C44,146.4,37,165.9,30.5,185.5c-1.8,5.6-3.6,11.2-5.4,16.7c-0.4,1.3,0.5,2.7,1.7,3.1
			c15.5,5.2,31,10.6,46.6,15.3c4.4,1.3,8.8,2.6,13.3,3.6c1.3,0.3,2.7-0.4,3.1-1.7c1.1-3.6,1.4-7.4,1.7-11.2
			c0.3-3.7,0.5-7.5,0.7-11.3c0.3-7.5,0.3-15-0.1-22.6c-0.2-3.8-0.4-7.5-0.8-11.3c-0.3-3.6-0.5-7.3-1.3-10.9
			c-0.7-3.5-2.8-6.1-5.5-8.3c-2.9-2.3-5.9-4.5-8.9-6.6c-6.7-4.7-13.5-9.1-20.6-13.2c-2.8-1.6-5.3,2.7-2.5,4.3
			c6.1,3.6,12.1,7.3,17.9,11.4c2.8,2,5.6,4,8.4,6.1c2.2,1.7,4.9,3.4,6,6.1c1.1,3,1.1,6.6,1.4,9.7c0.3,3.7,0.6,7.3,0.8,11
			c0.4,7.3,0.5,14.6,0.3,21.8c-0.1,4.1-0.3,8.2-0.6,12.2c-0.3,3.8-0.5,7.6-1.6,11.3c1-0.6,2.1-1.2,3.1-1.7
			c-15.9-3.8-31.3-9.4-46.7-14.6c-4.4-1.5-8.8-2.9-13.2-4.4c0.6,1,1.2,2.1,1.7,3.1c6.2-19.7,13-39.3,20.3-58.7
			c2.1-5.5,4.2-11,6.3-16.4c0.5-1.3-0.5-2.7-1.7-3.1C53.3,125,52.1,125.9,51.6,127.2L51.6,127.2z"/>
	</g>
</g>
<g>
	<g>
		<path class="st0" d="M245.9,45.2c11.3,5.7,22.6,11.4,34,17.1c5.3,2.7,10.7,5.1,15.7,8.1c2.3,1.4,4.5,3,6.3,4.9
			c1.8,2,3.2,4.3,4.5,6.6c5.6,10.4,10.5,21.2,15.3,32c4.8,10.9,9.2,21.9,13.4,33c4.7,12.7,9,25.5,12.8,38.4c0.9,3.1,5.7,1.8,4.8-1.3
			c-7-23.4-15.4-46.3-25-68.7c-4.8-11.2-10-22.2-15.4-33c-2.5-5-5.4-9.9-9.9-13.4c-4.6-3.6-10.1-6-15.3-8.7
			c-12.9-6.5-25.7-13-38.6-19.5C245.5,39.4,243,43.7,245.9,45.2L245.9,45.2z"/>
	</g>
</g>
<g>
	<g>
		<path class="st0" d="M347.8,184.1c0.4,5.5,3.1,10.2,5.6,15c0.6,1.1,1.1,2.3,1.6,3.4c0.3,0.8,1.4,2.8,1,3.6
			c-0.3,0.6-1.6,1.1-2.2,1.4c-1.4,0.8-2.7,1.5-4.1,2.2c-10.3,5.3-21.4,8.9-32.8,11c-6.3,1.1-12.8,1.7-19.2,1.7
			c0.8,0.6,1.6,1.2,2.4,1.8c-2.2-15.5-3.2-31.2-3-46.9c0-3.9,0.2-7.9,0.4-11.8c0.2-3.5-0.1-7.5,1.7-10.7c3.3-5.6,8-10.7,12.7-15.2
			c5.4-5.1,11.4-9.5,17.8-13c2.8-1.6,0.3-5.9-2.5-4.3c-12.2,6.8-22.8,16.3-30.8,27.8c-1.1,1.5-2.1,3.1-2.7,4.8
			c-0.7,2-0.8,4.1-0.9,6.2c-0.3,4.1-0.4,8.2-0.5,12.3c-0.2,8.2-0.1,16.4,0.4,24.6c0.5,9.2,1.4,18.4,2.7,27.6
			c0.2,1.1,1.4,1.8,2.4,1.8c12.4-0.1,24.7-2.1,36.5-5.9c6-1.9,11.8-4.3,17.4-7.2c2.5-1.3,5.4-2.5,7.5-4.4c2.7-2.5,1.8-5.8,0.6-8.8
			c-2.3-5.6-6.5-10.9-7-17.1c-0.1-1.3-1.1-2.5-2.5-2.5C349,181.6,347.7,182.7,347.8,184.1L347.8,184.1z"/>
	</g>
</g>
<g>
	<g>
		<path class="st0" d="M295.7,224c0.6,18.3,1.3,36.5,1.9,54.8c0.6,18.3,1.3,36.5,1.9,54.8c0.6,18.1,1.3,36.3-0.6,54.4
			c-0.1,1.1-0.2,2.1-0.4,3.2c-0.1,0.4-0.1,0.9-0.2,1.3c0,0.2-0.1,0.5-0.1,0.7c0,0.1-0.1,0.2-0.1,0.3c0.2-0.2,0.4-0.4,0.7-0.6
			c0,0-0.8,0-0.9,0c-0.6,0-1.2,0-1.7-0.1c-1.2,0-2.3-0.1-3.5-0.1c-4.6-0.2-9.1-0.3-13.7-0.4c-9.1-0.3-18.3-0.5-27.4-0.7
			c-18.3-0.3-36.6-0.5-54.8-0.4s-36.6,0.3-54.8,0.8c-9.1,0.2-18.3,0.5-27.4,0.9c-4.6,0.2-9.1,0.3-13.7,0.5c-2.3,0.1-4.6,0.2-7,0.3
			c-1.7,0.1-3.6,0.3-5.3,0.1c-1.5-0.2-1.7-0.6-1.7-2.1c0-2.3,0-4.6,0-6.9c0-4.6,0-9.1,0.1-13.7c0.1-9.1,0.1-18.3,0.2-27.4
			c0.2-18.3,0.5-36.5,0.8-54.8s0.8-36.5,1.3-54.8c0.1-4.5,0.3-9,0.4-13.4c0.1-3.2-4.9-3.2-5,0c-0.6,18.7-1.1,37.4-1.5,56
			s-0.7,37.4-1,56.1c-0.2,18.7-0.4,37.4-0.4,56.1c0,2.2-0.3,4.6,0.7,6.7c0.8,1.6,2.4,2.7,4.1,3.1c1.8,0.4,3.6,0.3,5.4,0.3
			c2.3-0.1,4.6-0.2,7-0.3c9.4-0.4,18.8-0.8,28.1-1.1c18.7-0.6,37.4-1,56.1-1.1c18.7-0.2,37.4-0.1,56.1,0.1
			c18.6,0.3,37.2,0.7,55.8,1.4c2,0.1,4.4,0.5,6.1-0.6c2-1.3,2-4,2.2-6.1c0.6-4.6,0.9-9.1,1.2-13.7c0.5-9.2,0.5-18.4,0.2-27.6
			c-0.4-18.6-1.3-37.2-1.9-55.9c-0.7-18.7-1.3-37.4-2-56c-0.2-4.6-0.3-9.1-0.5-13.7C300.6,220.8,295.6,220.8,295.7,224L295.7,224z"
			/>
	</g>
</g>
</svg>
