<?xml version="1.0" encoding="utf-8"?>
<!-- Generator: Adobe Illustrator 27.2.0, SVG Export Plug-In . SVG Version: 6.00 Build 0)  -->
<svg version="1.1" id="Layer_1_xA0_Image_00000115510406471243915870000012442433217708631467_"
	 xmlns="http://www.w3.org/2000/svg" xmlns:xlink="http://www.w3.org/1999/xlink" x="0px" y="0px" viewBox="0 0 163.3 185.2"
	 style="enable-background:new 0 0 163.3 185.2;" xml:space="preserve">
<g>
	<g>
		<path d="M33,28.3c3.6,0.2,7.1,0.4,10.7,0.6c-0.6-0.6-1.2-1.2-1.9-1.9c0.2,11.6,0.5,23.3,0.7,34.9c0.1,2.9,0.1,5.8,0.2,8.7
			c0.1,2.5,1,4.6,3.6,5.3c2.3,0.6,5,0.3,7.3,0.2c3,0,6-0.1,9-0.1c11.5-0.1,23.1-0.2,34.6-0.3c2.5,0,5.1,0.2,7.4-0.9
			c2-1,3.2-2.9,3.6-5.1c0.5-2.4,0.3-4.9,0.3-7.4c0-2.8,0-5.7,0-8.5c0-6.6,0-13.2-0.1-19.7c0-1.2-0.3-2.9,0.2-4
			c0.4-0.8,1.4-1.1,2.2-1.3c1.3-0.2,2.7,0.1,4,0.2c1.5,0.2,3,0.2,4.5-0.1c-0.8-0.6-1.6-1.2-2.4-1.8c1,17.1,2.3,34.3,2.7,51.4
			c0.4,17.2-1,34.2-1.6,51.4c-0.3,9.6-0.3,19.2,0.6,28.8c0.5-0.6,0.9-1.2,1.4-1.8c-5.5,1-11.1,1.1-16.7,1
			c-5.8-0.1-11.5-0.2-17.3-0.4c-11.5-0.2-23-0.5-34.6-0.7c-6.5-0.1-13.1-0.3-19.6-0.4c0.6,0.6,1.2,1.2,1.9,1.9
			c-0.1-17.2-0.1-34.4-0.1-51.6c0-17.1,0-34.2,0.1-51.3c0-9.7,0.1-19.4,0.2-29.2c0-2.4-3.7-2.4-3.7,0c-0.1,17.2-0.2,34.4-0.2,51.6
			c0,17.1,0,34.2,0,51.3c0,9.7,0,19.4,0.1,29.2c0,1,0.9,1.9,1.9,1.9c23.3,0.5,46.7,1.1,70,1.5c6.4,0.1,12.8,0,19.1-1.1
			c0.7-0.1,1.4-1.1,1.4-1.8c-1.6-17-0.4-34,0.5-51c0.4-8.6,0.7-17.1,0.6-25.7c-0.1-8.6-0.6-17.2-1.1-25.8
			c-0.6-9.7-1.1-19.4-1.7-29.1c-0.1-1.3-1.1-2.1-2.4-1.8c-2.4,0.5-4.8-0.5-7.2-0.3c-2.1,0.1-4.2,0.9-5.5,2.6c-1.4,2-1.1,4.6-1.1,6.9
			c0,2.7,0,5.5,0,8.2c0,5.7,0,11.3,0.1,17c0,2.5,0.1,5.1,0,7.6c-0.1,1.7-0.5,3.6-2.3,4.2c-1,0.3-2,0.3-3,0.3c-1.5,0-3,0-4.5,0
			c-2.8,0-5.6,0.1-8.5,0.1c-5.6,0.1-11.1,0.1-16.7,0.2c-5.6,0.1-11.1,0.1-16.7,0.2c-1.3,0-2.7,0-4,0c-0.7,0-1.8,0.1-2.3-0.4
			c-0.7-0.6-0.4-2.4-0.4-3.2c0-1.4-0.1-2.8-0.1-4.2c-0.3-12.6-0.5-25.1-0.8-37.7c0-1.1-0.8-1.8-1.9-1.9c-3.6-0.2-7.1-0.4-10.7-0.6
			C30.6,24.4,30.6,28.1,33,28.3L33,28.3z"/>
	</g>
</g>
</svg>
