<?xml version="1.0" encoding="utf-8"?>
<!-- Generator: Adobe Illustrator 27.2.0, SVG Export Plug-In . SVG Version: 6.00 Build 0)  -->
<svg version="1.1" id="talle_bikini_copy_xA0_Image_00000041283807469066477460000003879523024989707654_"
	 xmlns="http://www.w3.org/2000/svg" xmlns:xlink="http://www.w3.org/1999/xlink" x="0px" y="0px" viewBox="0 0 217.2 219.5"
	 style="enable-background:new 0 0 217.2 219.5;" xml:space="preserve">
<g>
	<g>
		<path d="M28.3,29.4c2.1,0,4.3,0.1,6.4,0.1c0.7,0,0.7-0.2,0.7,0.5c0,0.5,0,1,0,1.5c0,1.2,0,2.5,0,3.7c0,4.4,0.1,8.9,0.3,13.3
			c0.2,3.7-0.1,7.8,1.3,11.2c1.3,3.3,4.2,4.8,7.6,5.3c4.3,0.6,8.7,0.8,13,1c4.5,0.2,9.1,0.3,13.6,0.2c3.6-0.1,7.6,0.1,10.8-1.6
			c3-1.6,4.5-4.7,5-7.9c0.7-4.3,0.4-8.8,0.4-13.2c0-5.1,0.1-10.2,0.1-15.3c-0.4,0.4-0.8,0.8-1.2,1.2c2.6-0.2,5.1-0.2,7.7,0.1
			c1.6,0.2,1.6-2.3,0-2.5c-2.6-0.3-5.1-0.4-7.7-0.1c-0.7,0.1-1.2,0.5-1.2,1.2c0,8.3,0.1,16.7-0.2,25.1c-0.1,3-0.5,6.6-3,8.6
			c-2.8,2.2-7.2,1.9-10.6,1.9c-8.5,0.1-17.1-0.1-25.5-1.1c-1.6-0.2-3.5-0.5-4.8-1.6c-1.2-1-1.8-2.6-2.1-4.1
			c-0.8-3.8-0.6-7.9-0.7-11.7c-0.2-4.8-0.2-9.7-0.2-14.5c0-2-0.1-3.6-2.5-3.7c-2.4-0.1-4.8-0.1-7.2-0.1
			C26.7,26.9,26.7,29.4,28.3,29.4L28.3,29.4z"/>
	</g>
</g>
<g>
	<g>
		<path d="M92.8,28.2c0.6,9.3,1.3,18.6,1.1,28c-0.1,4.7-0.6,9.4-0.9,14.1c-0.3,4.6-0.2,9.1-0.1,13.7c0.1,5.4,0.2,10.8,0.3,16.2
			c0,1.6,2.5,1.6,2.5,0c-0.1-4.7-0.2-9.5-0.3-14.2c-0.1-4.6-0.3-9.2-0.1-13.8c0.2-4.7,0.8-9.3,1-14c0.2-4.7,0.1-9.3-0.1-14
			c-0.2-5.3-0.6-10.6-0.9-15.9C95.2,26.6,92.7,26.6,92.8,28.2L92.8,28.2z"/>
	</g>
</g>
<g>
	<g>
		<path d="M94.4,99.1C77,98.6,59.6,98,42.2,97.4c-4.7-0.2-9.6-0.1-14.3-1.1c0.3,0.4,0.6,0.8,0.9,1.2c-1.5-18-1.3-36.1-0.7-54.1
			c0.2-5.1,0.4-10.3,0.6-15.4c0.1-1.6-2.4-1.6-2.5,0c-0.7,18-1.4,36.1-0.8,54.1c0.2,5.1,0.5,10.2,0.9,15.4c0,0.5,0.4,1.1,0.9,1.2
			c4.1,0.9,8.3,0.9,12.4,1.1c4.4,0.1,8.8,0.3,13.2,0.4c8.8,0.3,17.7,0.6,26.5,0.9c5,0.2,10,0.3,15,0.5C96,101.7,96,99.2,94.4,99.1
			L94.4,99.1z"/>
	</g>
</g>
<g>
	<g>
		<path d="M28.3,127.4c9.1,0.8,18.2,1.1,27.4,1c8.9-0.1,17.8-1,26.7-1.6c4.9-0.3,9.9-0.2,14.7,1.2c-0.3-0.4-0.6-0.8-0.9-1.2
			c1.2,11.7,1.7,23.6,1.7,35.4c0.4-0.4,0.8-0.8,1.2-1.2c-8.1,1-15.8,4.6-21.6,10.5c-2.8,2.8-5.1,6.2-6.8,9.8
			c-0.8,1.8-1.5,3.6-2.1,5.6c-0.3,1-0.5,1.9-0.7,2.9c0,0.1,0,0.4-0.1,0.6c-0.2,0.2,0.2,0-0.3,0c-0.6,0-1.3,0-1.9,0
			c-2.4,0-4.8,0-7.2,0c-0.7,0-0.7,0.2-0.9-0.3c-0.2-0.4-0.2-1.1-0.3-1.6c-0.2-1-0.5-2-0.8-3c-1.3-3.9-3.4-7.6-6-10.8
			c-2.6-3.3-5.7-6.1-9.1-8.5c-1.7-1.2-3.5-2.4-5.4-3.4c-0.9-0.5-1.7-0.9-2.6-1.4c-0.8-0.4-2.3-0.8-2.8-1.6c-0.7-1-0.6-2.7-0.7-3.8
			c-0.1-1.4-0.2-2.8-0.2-4.2c-0.1-2.8-0.2-5.6-0.3-8.4c-0.1-5.6-0.1-11.3,0.1-16.9c0.1-1.6-2.4-1.6-2.5,0
			c-0.2,5.1-0.2,10.3-0.2,15.4c0.1,5.1,0.1,10.2,0.6,15.3c0.2,2.1,0.5,4.2,2.4,5.3c1.9,1.1,3.9,1.9,5.7,2.9c3.8,2.2,7.4,4.8,10.4,8
			c3,3.1,5.5,6.7,7.2,10.7c0.8,2,1.4,4.1,1.8,6.2c0.2,0.9,0.4,1.7,1.2,2.2c0.9,0.5,2.2,0.3,3.2,0.3c2.5,0,5,0,7.5,0
			c0.9,0,1.9,0.1,2.7-0.5c0.8-0.7,0.8-1.7,1-2.7c0.9-4.1,2.5-8,4.8-11.5c5.3-8.1,14.2-13.5,23.7-14.6c0.7-0.1,1.2-0.5,1.2-1.2
			c0-11.8-0.5-23.6-1.7-35.4c-0.1-0.6-0.4-1-0.9-1.2c-8.5-2.5-17.4-1-26-0.4c-9.2,0.7-18.4,0.9-27.6,0.6c-5.3-0.2-10.5-0.5-15.8-0.9
			C26.7,124.8,26.8,127.3,28.3,127.4L28.3,127.4z"/>
	</g>
</g>
<g>
	<g>
		<path d="M106.7,127.2c-0.4,12-0.7,23.9-0.8,35.9c0,1.4,0,2.8-0.1,4.2c0,1.2-0.3,2.8,0.4,3.8c0.7,0.9,1.8,0.8,2.8,0.9
			c1.6,0.1,3.1,0.1,4.7,0.2c5.9,0.2,11.8,0.4,17.7,0.4c1.6,0,3.3,0,4.9,0c1.3,0,2.7,0.1,3.7-0.8c1-0.8,1.4-2.1,1.8-3.2
			c0.6-1.5,1.3-3,1.9-4.5c-0.7,0-1.4,0-2.2,0c1,1.5,2,2.9,3.1,4.4c0.8,1.2,1.6,2.6,3,3.2c1.5,0.6,3.1,0.2,4.6,0.1
			c1.8-0.2,3.5-0.2,5.3-0.1c7,0.3,14,1.9,21,0.7c0.5-0.1,0.9-0.7,0.9-1.2c0.2-15.1,0-30.1-0.4-45.2c0-0.7-0.6-1.2-1.2-1.2
			c-18.2-0.7-36.4,0.6-54.6,0.7c-5.1,0-10.3,0-15.4-0.2c-1.6-0.1-1.6,2.4,0,2.5c18.2,0.8,36.4-0.5,54.6-0.6c5.1,0,10.3,0,15.4,0.2
			c-0.4-0.4-0.8-0.8-1.2-1.2c0.4,15.1,0.5,30.1,0.4,45.2c0.3-0.4,0.6-0.8,0.9-1.2c-6.3,1-12.7-0.3-19-0.8c-1.5-0.1-3.1-0.2-4.6-0.1
			c-1.5,0-3,0.3-4.5,0.4c-1.8,0.1-2.4-1.3-3.4-2.7c-0.9-1.3-1.9-2.7-2.8-4c-0.5-0.7-1.8-0.9-2.2,0c-0.5,1.2-1,2.3-1.5,3.5
			c-0.4,1-0.8,2.2-1.4,3.2c-0.6,1-2.2,0.7-3.2,0.7c-1.4,0-2.8,0-4.2,0c-5.3-0.1-10.6-0.2-16-0.4c-1.2,0-2.5-0.1-3.7-0.1
			c-0.7,0-1.3-0.1-2-0.1c-0.2,0-0.5,0-0.7,0c-0.2,0-0.5,0-0.7,0c-0.3,0-0.3,0,0,0.1c0-2.7,0.1-5.3,0.1-8c0.1-5.4,0.2-10.8,0.3-16.2
			c0.1-6.1,0.3-12.1,0.5-18.2C109.2,125.6,106.7,125.6,106.7,127.2L106.7,127.2z"/>
	</g>
</g>
</svg>
