<?xml version="1.0" encoding="utf-8"?>
<!-- Generator: Adobe Illustrator 27.2.0, SVG Export Plug-In . SVG Version: 6.00 Build 0)  -->
<svg version="1.1" id="talle_buzos_copy_xA0_Image_00000168836573119353432110000014905752084765200262_"
	 xmlns="http://www.w3.org/2000/svg" xmlns:xlink="http://www.w3.org/1999/xlink" x="0px" y="0px" viewBox="0 0 499.1 360.4"
	 style="enable-background:new 0 0 499.1 360.4;" xml:space="preserve">
<style type="text/css">
	.st0{fill:#12100B;}
</style>
<g>
	<g>
		<path class="st0" d="M177.6,105.8c0.9-12.7,1.7-25.5,2.6-38.2c0.2-3,0.4-6,1.3-8.9c0.7-2.3,1.9-4.4,3.3-6.3
			c2.9-3.9,6.8-6.9,10.8-9.7c8.9-6.4,18.6-13.2,29.6-15.3c5.2-1,10.5-0.6,15.4,1.4c4.6,1.9,8.6,5,12.2,8.4
			c3.8,3.6,7.3,7.4,10.7,11.3c3.3,3.9,6.6,8,8.6,12.8c2,4.9,2,9.8,1,14.9c-1,5.1-2.7,10.2-2.4,15.5c0.1,2.6,0.8,5,1.9,7.3
			c1,2.1,2.5,4.3,2.9,6.6c0.4,2.5-2,3.1-3.9,3.9c-2.5,1.1-4.9,2.5-7.2,4c-4.5,3-8.6,6.4-13.4,8.9c-4.5,2.4-9.4,3.8-14.5,4.6
			c-10.4,1.6-21.2-0.1-31.2-3.2c-5-1.5-9.9-3.4-14.6-5.7c-4.1-1.9-8.2-4.2-11.1-7.7c-1.4-1.6-2.3-3.5-2.8-5.6
			c-0.5-2.4-4.2-1.4-3.6,1c2.3,10.3,13.7,15,22.5,18.6c10.4,4.2,21.6,7,32.9,7c5.5,0,11.1-0.8,16.4-2.4c5.3-1.7,10.2-4.3,14.7-7.5
			c4.7-3.3,9.3-6.8,14.7-9.1c2.5-1,4.6-2.7,4.9-5.5c0.3-2.5-0.9-4.9-2-7c-1.2-2.3-2.4-4.6-2.7-7.2c-0.3-2.7,0.1-5.4,0.6-8.1
			c1.1-5.4,2.8-10.9,2.4-16.5c-0.8-11.2-9.1-19.9-16.4-27.7c-7.4-8-15.9-15.8-27.2-17c-11.9-1.3-23.3,4.8-32.8,11.1
			c-4.7,3.1-9.4,6.3-13.6,9.9c-3.9,3.4-7.3,7.4-9.1,12.3c-1.1,2.9-1.4,6-1.6,9.1c-0.3,3.4-0.5,6.7-0.7,10.1
			c-0.5,6.7-0.9,13.4-1.4,20.1c-0.2,3.3-0.4,6.6-0.7,9.9C173.7,108.2,177.4,108.2,177.6,105.8L177.6,105.8z"/>
	</g>
</g>
<g>
	<g>
		<path class="st0" d="M179.8,73.9c1.9,0,3.8,0.1,5.7,0.1c1.9,0,3.8,0,5.6,0.2c3.2,0.4,5.2,2.6,6.6,5.3c0.7,1.4,1.2,3,2.1,4.3
			c0.9,1.3,2.1,2.4,3.5,3.1c3.1,1.8,6.7,2,10.2,2.2c7.3,0.4,14.7,2.5,22.1,1.6c6.7-0.8,12.5-4.2,17.6-8.5c1.4-1.1,2.6-2.5,4.1-3.5
			c1.6-1.1,3.3-1.5,5.2-1.9c4.2-0.7,8.4-1.2,12.6-1.7c1-0.1,1.6-1.4,1.3-2.3c-0.3-1.1-1.3-1.4-2.3-1.3c-3.8,0.5-7.5,1-11.3,1.5
			c-3.4,0.5-6.4,1.5-9.1,3.7c-2.5,2.1-4.9,4.3-7.7,6c-2.7,1.7-5.6,3.1-8.8,3.8c-7.1,1.6-14.5-0.7-21.7-1.2c-3.4-0.2-7,0-10.1-1.6
			c-1.2-0.6-2.3-1.5-3-2.7c-0.8-1.4-1.3-3-2.1-4.5c-1.8-3-4.4-5.5-8-6.1c-2-0.4-4-0.4-6-0.4c-2.2-0.1-4.4-0.1-6.6-0.2
			C177.4,70.1,177.4,73.8,179.8,73.9L179.8,73.9z"/>
	</g>
</g>
<g>
	<g>
		<path class="st0" d="M195.3,75.7c4,0.5,7.5,2.9,11.2,4.4c4.4,1.8,8.8,1.5,13.4,1.7c4.8,0.2,9.5,0.9,14.3,1
			c4.7,0.1,9.3-0.5,13.7-1.9c4.6-1.5,9.2-3.7,14.2-3.3c2.4,0.2,2.4-3.6,0-3.8c-4.4-0.3-8.6,1.1-12.7,2.6c-4.4,1.6-8.7,2.6-13.3,2.7
			c-4.8,0.1-9.5-0.5-14.3-0.9c-4.6-0.3-9.2,0.2-13.6-1.4c-4.4-1.6-8.2-4.2-13-4.8c-1-0.1-1.9,1-1.9,1.9
			C193.4,74.9,194.3,75.6,195.3,75.7L195.3,75.7z"/>
	</g>
</g>
<g>
	<g>
		<path class="st0" d="M217.2,89.9c-1,15.7,3.4,31.6,0.4,47.2c-0.8,4.1-2.1,8-4.1,11.7c-1.2,2.1,2.1,4,3.2,1.9
			c7.8-14.3,5.5-30.9,4.4-46.4c-0.3-4.8-0.5-9.6-0.2-14.4C221.1,87.4,217.3,87.5,217.2,89.9L217.2,89.9z"/>
	</g>
</g>
<g>
	<g>
		<path class="st0" d="M233.1,88.6c-3.6,5-6.1,10.8-7.3,16.9c-1.3,6.7-0.9,13.4,0,20.1c0.9,6.7,2.1,13.4,2.5,20.2
			c0.4,6.8,0.2,13.7-0.1,20.5c-0.1,3.8-0.3,7.4-1.4,11.1c-1,3.4-2.3,6.8-1.9,10.4c0.1,1,0.8,1.9,1.9,1.9c0.9,0,2-0.9,1.9-1.9
			c-0.4-3.1,0.7-6,1.6-9c1-3.2,1.4-6.3,1.6-9.6c0.3-6.7,0.5-13.4,0.3-20c-0.2-6.8-1.2-13.5-2.1-20.2c-0.9-6.5-1.7-13-1-19.5
			c0.7-6.8,3.3-13.4,7.3-18.9c0.6-0.8,0.1-2.1-0.7-2.6C234.7,87.3,233.7,87.7,233.1,88.6L233.1,88.6z"/>
	</g>
</g>
<g>
	<g>
		<path class="st0" d="M188,205.7c18.4-0.6,36.7-1.2,55.1-1.7c5.2-0.2,10.5-0.3,15.7-0.5c-0.5-0.3-1.1-0.6-1.6-0.9
			c7,13.5,14,27.1,19.2,41.4c0.7,1.8,1.3,3.5,1.9,5.3c0.2,0.5,0.7,1.4,0.6,2c-0.2,0.8-1.2,1.8-1.7,2.5c-2.3,3.2-4.7,6.4-7,9.6
			c-2.3,3.2-4.7,6.4-7,9.6c-0.9,1.3-1.8,2.7-3.4,3.2c-1.7,0.5-3.7,0.6-5.4,0.7c-8,0.7-16.1,0.6-24.2,0.3c-7.9-0.2-15.8-0.5-23.8-0.7
			c-2-0.1-4-0.1-5.9-0.2c-0.8,0-1.7-0.1-2.5-0.1c-0.8,0-1.9,0.1-2.7-0.3c-0.7-0.4-1.2-1.1-1.7-1.7c-0.7-0.7-1.4-1.4-2-2.2
			c-1.4-1.4-2.7-2.9-4-4.3c-2.7-2.9-5.4-5.8-8.1-8.7c-1.3-1.4-2.7-2.9-4-4.3c-0.7-0.7-1.3-1.4-2-2.2c-0.6-0.7-1.3-1-0.9-1.9
			c1.6-3.7,4.1-7.2,6.2-10.7c2.1-3.5,4.2-7.1,5.8-10.9c3.2-7.7,4.8-16,4.5-24.4c-0.1-2.4-3.8-2.4-3.8,0c0.2,7.7-1.1,15.4-4,22.5
			c-2.9,7.2-7.7,13.4-11.3,20.3c-0.9,1.8-1.9,3.6-0.8,5.6c0.9,1.6,2.6,3,3.9,4.4c2.8,3.1,5.7,6.1,8.5,9.2c2.9,3.1,5.7,6.1,8.6,9.2
			c1.3,1.3,2.5,3,4.3,3.6c1.7,0.6,3.8,0.4,5.6,0.5c8.4,0.3,16.8,0.5,25.3,0.8c8.4,0.3,16.8,0.5,25.2,0.1c2.1-0.1,4.3-0.3,6.4-0.5
			c1.8-0.2,3.7-0.3,5.4-1.2c1.6-0.8,2.7-2.3,3.8-3.7c1.2-1.7,2.4-3.3,3.7-5c2.5-3.4,5-6.8,7.5-10.2c1.3-1.7,2.5-3.5,3.8-5.2
			c1.2-1.6,2.1-3,1.6-5.1c-0.4-1.9-1.3-3.8-1.9-5.7c-0.7-1.8-1.4-3.7-2.1-5.5c-1.5-3.7-3-7.4-4.7-11.1c-3.3-7.3-6.9-14.5-10.5-21.6
			c-0.9-1.8-1.9-3.6-2.8-5.5c-0.3-0.6-1-0.9-1.6-0.9c-18.4,0.6-36.7,1.2-55.1,1.7c-5.2,0.2-10.5,0.3-15.7,0.5
			C185.5,202,185.5,205.8,188,205.7L188,205.7z"/>
	</g>
</g>
<g>
	<g>
		<path class="st0" d="M174,103.8c-14.5,7.3-29.2,14.7-45,19c-3.9,1.1-7.8,1.9-11.8,2.5c-4,0.7-8,1.3-11.7,2.9
			c-6.7,2.9-11.3,9-15.3,14.9C81,156.8,73.1,171.2,65.7,186c-7.3,14.8-14.1,29.9-20.7,45c-3.2,7.3-5.7,14.7-3.8,22.7
			c1.6,6.9,5.6,12.9,7.6,19.6c0.5,1.6,0.9,3.3,1,5c0.1,1.4,1.5,2.4,2.8,1.6c11-6.4,25.1-6.7,36.5-0.9c1.1,0.6,2.4,0.1,2.8-1.1
			c1.2-4.1,3.8-7.5,5.9-11.1c2.1-3.6,3.8-7.4,4.8-11.5c2.1-8.2,1.9-16.7,1.6-25c-0.1-4.3-0.3-8.5-0.2-12.8c0.1-3.9,0.1-7.9,1.3-11.6
			c1-3.1,3.3-5.6,6.7-5.3c3.5,0.3,6.2,2.9,7.7,5.9c2.1,4.2,2.3,9.3,2.8,13.9c0.6,5.4,1.1,10.9,1.7,16.3c0.1,1,0.8,1.9,1.9,1.9
			c0.9,0,2-0.9,1.9-1.9c-0.5-5.2-1.1-10.4-1.6-15.6c-0.5-4.6-0.7-9.4-2.2-13.8c-1.4-3.9-3.8-7.3-7.5-9.2c-3.4-1.7-7.6-1.9-10.8,0.5
			c-3.2,2.4-4.5,6.3-5,10.1c-0.6,4.5-0.6,9-0.6,13.5c0.1,9,1,18.2-0.3,27.2c-0.7,4.9-2.1,9.7-4.5,14c-2.5,4.5-5.6,8.5-7.2,13.5
			c0.9-0.4,1.8-0.7,2.8-1.1c-12.5-6.5-28-6.2-40.2,0.9c0.9,0.5,1.9,1.1,2.8,1.6c-0.6-7-4-13.1-6.7-19.5c-1.3-3.1-2.4-6.4-2.6-9.8
			c-0.3-4,0.8-7.9,2.2-11.6c1.4-3.7,3.1-7.4,4.7-11c1.7-3.7,3.3-7.5,5-11.2c3.4-7.5,6.8-14.9,10.3-22.3c7-14.6,14.7-28.9,23.4-42.5
			c3.8-6,7.8-12.7,13.8-16.8c6.4-4.4,14.8-4.4,22.1-6.1c15.7-3.7,30.4-10.6,44.8-17.8c1.8-0.9,3.5-1.8,5.3-2.7
			C178.1,105.9,176.2,102.7,174,103.8L174,103.8z"/>
	</g>
</g>
<g>
	<g>
		<path class="st0" d="M123.9,235.7c-0.3,5.9,1.5,11.5,3.7,16.8c2.3,5.5,4.9,10.9,7.4,16.3c5.1,11.2,10.3,22.5,15.4,33.7
			c2.3,5,4.2,10.5,7.7,14.8c3.1,3.9,7.7,6.2,12.6,6.9c5.6,0.8,11.1-0.2,16.5-1.7c5.6-1.5,11.1-3.3,16.7-4.5
			c22.8-5.1,46.8-5.6,69.7-1.1c2.8,0.5,5.6,1.4,8.4,1.6c2.8,0.2,5.2-0.8,7.2-2.7c3.7-3.5,6.6-8.2,8.9-12.7c2.4-4.6,4.2-9.6,5.4-14.7
			c0.6-2.6,1-5.3,1.2-8c0.2-2.9,0.4-5.7,1.4-8.5c0.9-2.5,2.3-4.9,3.5-7.3c1.3-2.6,2.5-5.2,3.5-7.9c2.1-5.3,3.9-10.7,5.3-16.2
			c1.4-5.5,2.4-11.1,3-16.8c0.3-2.9,0.4-5.7,0.7-8.6c0.3-2.5,0.8-5.1,2.3-7.2c1.3-1.7,3.1-2.8,5.2-2.7c2.4,0.1,2.4-3.7,0-3.8
			c-5-0.2-8.8,3.9-10.2,8.3c-0.9,2.7-1.1,5.5-1.2,8.3c-0.2,2.8-0.4,5.6-0.8,8.4c-1.4,11.1-4.5,22-9,32.2c-2.2,5-5.6,9.8-6.6,15.2
			c-0.6,2.8-0.6,5.6-0.9,8.4c-0.3,2.6-0.8,5.2-1.5,7.7c-1.3,5-3.3,9.7-5.9,14.1c-1.3,2.1-2.7,4.2-4.2,6.1c-1.4,1.8-3.1,4.3-5.5,4.6
			c-2.5,0.4-5.5-0.8-7.9-1.3c-2.8-0.6-5.7-1.1-8.5-1.5c-5.7-0.8-11.5-1.4-17.2-1.7c-11.5-0.6-22.9,0-34.3,1.7
			c-5.7,0.8-11.4,2-16.9,3.4c-5.6,1.4-11,3.4-16.7,4.6c-4.9,1.1-10.2,1.3-15-0.5c-4.8-1.8-7.5-5.9-9.6-10.3
			c-5.2-10.8-10-21.9-15-32.8c-2.5-5.6-5.1-11.1-7.6-16.7c-2.4-5.2-5-10.4-6.5-16c-0.7-2.6-1-5.3-0.9-8
			C127.7,233.3,124,233.3,123.9,235.7L123.9,235.7z"/>
	</g>
</g>
<g>
	<g>
		<path class="st0" d="M329,204.7c5.2,1.6,9.6,5.1,14,8.2c4.8,3.3,9.6,6.7,14.3,10c9.5,6.6,19,13.3,28.6,19.9
			c8.5,5.9,17.2,11.6,26.6,16.1c4.6,2.2,9.4,4.1,14.4,5.5c1.2,0.3,2.4,0.6,3.6,0.9c1.1,0.2,2.5,0.7,3.6,0.4c1.3-0.4,1.8-1.5,1.9-2.8
			c0.1-1.1,0.3-2.3,0.6-3.4c2.5-10.5,10.5-18.6,18.1-25.7c1.8-1.7-0.9-4.3-2.7-2.7c-6.8,6.4-13.6,13.4-17.3,22.1
			c-0.9,2.1-1.6,4.2-2,6.4c-0.1,0.6-0.2,1.2-0.3,1.8c0,0.3-0.1,0.6-0.1,0.8c-0.1,0.6-0.3,0.8,0.4,0.2c0.7-0.6,0.4-0.4-0.2-0.5
			c-0.4-0.1-0.7-0.2-1.1-0.2c-0.6-0.1-1.3-0.3-1.9-0.5c-4.9-1.2-9.6-3-14.2-5.1c-9.2-4.3-17.7-9.8-26.1-15.5
			c-9.3-6.4-18.5-12.9-27.8-19.3c-5.3-3.7-10.7-7.4-16-11.1c-4.9-3.4-9.7-7.2-15.5-9C327.7,200.4,326.7,204,329,204.7L329,204.7z"/>
	</g>
</g>
<g>
	<g>
		<path class="st0" d="M276,104.6c0.2,6.1,6.6,8.6,11.6,10.2c6.8,2.2,13.6,4.6,20.3,7.3c13.3,5.3,26.3,11.7,38.7,18.9
			c12.9,7.5,25,16.1,37,25.1c12.1,9.1,24.2,18.2,35,28.8c11.6,11.4,22.1,24,32,36.9c0.6,0.8,1.6,1.2,2.6,0.7
			c0.8-0.5,1.3-1.8,0.7-2.6c-8.8-11.5-18-22.8-28.1-33.2c-10.4-10.7-21.8-20.1-33.6-29c-11.9-9-23.9-18-36.6-25.8
			c-12.1-7.5-24.7-14.1-37.8-19.8c-7.3-3.2-14.7-6.1-22.2-8.7c-3.4-1.2-7.1-2.1-10.4-3.5c-2.3-1-5.2-2.5-5.3-5.3
			C279.6,102.2,275.9,102.2,276,104.6L276,104.6z"/>
	</g>
</g>
<g>
	<g>
		<path class="st0" d="M433.5,266.3c3.7,2.4,7.8,4.2,12,5.2c1.8,0.4,4.7,1.5,6.2-0.1c0.7-0.7,1-1.8,1.5-2.7c0.5-1,1.1-2,1.7-3
			c2.3-4,4.7-7.9,7.4-11.7c1.2-1.7,2.8-3.4,3.8-5.2c1.2-2.3,0.1-4-1.3-5.9c-3.3-4.2-6.7-8.4-10.3-12.4c-1.6-1.8-4.2,0.8-2.7,2.7
			c2.7,3,5.3,6.1,7.8,9.3c0.6,0.8,1.3,1.6,1.9,2.4c0.3,0.4,1.4,1.4,1.4,1.9c-0.1,0.6-1,1.5-1.4,2c-0.6,0.9-1.3,1.7-1.9,2.6
			c-2.3,3.2-4.4,6.5-6.4,9.8c-1,1.7-2,3.4-2.9,5.2c-0.1,0.2-1.4,2.3-1.3,2.4c0.1-0.1,0.2-0.1,0.3-0.2c0.4-0.2,0.4-0.2,0.1-0.2
			c-0.1-0.1-0.5-0.1-0.6-0.1c-0.5-0.1-1-0.2-1.5-0.3c-4.2-0.9-8.2-2.6-11.8-5C433.4,261.7,431.5,265,433.5,266.3L433.5,266.3z"/>
	</g>
</g>
<g>
	<g>
		<path class="st0" d="M448.3,242.2c1,0.1,2.2,1.1,3.1,1.7c1.2,0.8,2.4,1.6,3.5,2.5c2.2,1.7,4.3,3.5,6.3,5.5c1.7,1.7,4.4-1,2.7-2.7
			c-2.3-2.2-4.7-4.3-7.3-6.2c-1.2-0.9-2.5-1.8-3.8-2.7c-1.4-0.9-2.8-1.8-4.5-1.9c-1-0.1-1.9,0.9-1.9,1.9
			C446.5,241.4,447.3,242.1,448.3,242.2L448.3,242.2z"/>
	</g>
</g>
<g>
	<g>
		<path class="st0" d="M441.8,246.2c5,2.9,9.7,6.4,14,10.4c0.7,0.7,1.9,0.7,2.7,0c0.7-0.7,0.7-2,0-2.7c-4.5-4.2-9.5-7.9-14.8-10.9
			C441.6,241.7,439.7,245,441.8,246.2L441.8,246.2z"/>
	</g>
</g>
<g>
	<g>
		<path class="st0" d="M438.2,252.9c5.4,1.9,10.4,4.6,15,8.1c0.8,0.6,2.1,0.1,2.6-0.7c0.6-1,0.1-2-0.7-2.6
			c-4.8-3.6-10.2-6.5-15.9-8.4c-1-0.3-2.1,0.4-2.3,1.3C436.6,251.6,437.2,252.6,438.2,252.9L438.2,252.9z"/>
	</g>
</g>
<g>
	<g>
		<path class="st0" d="M434.7,260.5c6.1,0.9,11.9,3.1,17.1,6.5c0.8,0.6,2.1,0.2,2.6-0.7c0.5-0.9,0.2-2-0.7-2.6
			c-5.4-3.6-11.6-5.9-18-6.9c-1-0.1-2,0.2-2.3,1.3C433.2,259.1,433.7,260.4,434.7,260.5L434.7,260.5z"/>
	</g>
</g>
<g>
	<g>
		<path class="st0" d="M158.8,313.7c3.5-2.6,6.9-5.3,10.7-7.5c3.8-2.2,7.9-3.8,12.1-5.1c8.7-2.6,17.7-3.9,26.7-4.5
			c9.1-0.6,18.3-0.8,27.4-0.8c4.7,0,9.4,0.2,14.1,1.1c4.5,0.8,8.9,2.1,13.3,3.3c9,2.5,17.9,5.4,25.5,11c0.8,0.6,2.1,0.1,2.6-0.7
			c0.6-0.9,0.1-2-0.7-2.6c-6.9-5.1-15-8-23.1-10.4c-9-2.7-18.1-5.2-27.5-5.4c-9.4-0.3-18.9,0-28.2,0.5c-9.4,0.5-18.7,1.6-27.8,4
			c-5,1.3-9.9,3-14.4,5.4c-4.5,2.4-8.5,5.4-12.5,8.5c-0.8,0.6-1.2,1.6-0.7,2.6C156.7,313.9,158,314.4,158.8,313.7L158.8,313.7z"/>
	</g>
</g>
<g>
	<g>
		<path class="st0" d="M163.4,319.6c13.5-8.1,29.1-11.5,44.6-12.8c8.4-0.7,16.8-0.8,25.2-0.8c8.3,0,16.7-0.2,24.9,1.3
			c9,1.7,17.4,5.4,25.7,9.2c0.9,0.4,2,0.3,2.6-0.7c0.5-0.8,0.2-2.1-0.7-2.6c-7.5-3.4-15.1-6.8-23.1-8.8c-8.4-2.1-17.1-2.2-25.6-2.2
			c-17,0-34.1,0.1-50.7,4.2c-8.6,2.1-17,5.3-24.7,9.9C159.5,317.6,161.3,320.9,163.4,319.6L163.4,319.6z"/>
	</g>
</g>
<g>
	<g>
		<path class="st0" d="M229.1,291.6c-2.3-2.5-5.1-4.5-8.3-5.6c-2.7-1-6.5-1.8-8.8,0.4c-1.2,1.1-1.5,2.9-0.9,4.3
			c0.6,1.7,2,2.7,3.7,3.3c1.7,0.6,3.6,0.8,5.4,1.2c2,0.4,4,0.9,6,1.6c1,0.3,2-0.4,2.3-1.3c1.5-4,5-7.2,9.2-8.4
			c0.7-0.2,4.6-1,3.8,0.6c-0.4,0.9-1.7,1.2-2.6,1.5c-1.4,0.5-2.9,1-4.3,1.4c-1.3,0.4-2.6,0.9-3.8,1.3c-1.2,0.4-2.6,0.7-3.6,1.5
			c-2.2,1.6-2,4.6-1.6,7c0.5,2.6,1.6,5.1,2.2,7.7c0.6,2.7,0.7,5.6,0.4,8.4c-0.6,6.4-3,12.6-5.3,18.6c-0.9,2.3,2.8,3.2,3.6,1
			c2.3-6.1,4.6-12.2,5.3-18.7c0.4-3.1,0.3-6.3-0.3-9.4c-0.6-3-2.1-5.9-2.4-8.9c-0.1-1.1-0.4-2.4,0.7-2.9c1.4-0.6,2.9-1,4.3-1.5
			c1.4-0.5,2.9-1,4.3-1.4c1.4-0.5,3-0.9,4.3-1.7c2.3-1.5,3.6-4.8,1.5-7c-1.8-1.9-4.6-1.7-6.9-1.2c-5.8,1.3-10.5,5.7-12.5,11.2
			c0.8-0.4,1.5-0.9,2.3-1.3c-2.7-0.9-5.5-1.5-8.4-2c-1.1-0.2-2.5-0.3-3.5-0.9c-0.5-0.3-1.1-0.9-0.4-1.3c1.6-0.8,4.3,0.4,5.7,1
			c2.2,1,4.2,2.5,5.8,4.3C228,296.1,230.7,293.4,229.1,291.6L229.1,291.6z"/>
	</g>
</g>
<g>
	<g>
		<path class="st0" d="M225.1,294.2c0,7.6,0.1,15.4,2.8,22.6c2.5,6.5,7,12,13,15.6c2.1,1.3,4-2,1.9-3.2c-5.4-3.2-9.5-8.3-11.6-14.2
			c-2.3-6.7-2.3-13.8-2.4-20.8C228.9,291.8,225.1,291.8,225.1,294.2L225.1,294.2z"/>
	</g>
</g>
<g>
	<g>
		<path class="st0" d="M162.9,310.6c1,1.2,2,2.4,3.1,3.5c0.3,0.3,0.9,0.5,1.3,0.5c0.5,0,1-0.2,1.3-0.5c0.3-0.4,0.6-0.8,0.5-1.3
			c0-0.5-0.2-1-0.5-1.3c-1.1-1.1-2.1-2.3-3.1-3.5c-0.3-0.3-0.9-0.5-1.3-0.5c-0.5,0-1,0.2-1.3,0.5c-0.3,0.4-0.6,0.8-0.5,1.3
			c0,0.2,0,0.3,0.1,0.5C162.5,310.1,162.7,310.4,162.9,310.6L162.9,310.6z"/>
	</g>
</g>
<g>
	<g>
		<path class="st0" d="M168.6,305.7c1.6,1.5,3,3.1,4.4,4.8c0.3,0.4,0.9,0.5,1.3,0.5c0.5,0,1-0.2,1.3-0.5c0.3-0.4,0.6-0.8,0.5-1.3
			c0-0.2,0-0.3-0.1-0.5c-0.1-0.3-0.2-0.6-0.5-0.8c-1.4-1.7-2.8-3.3-4.4-4.8c-0.4-0.3-0.8-0.5-1.3-0.5c-0.5,0-1,0.2-1.3,0.5
			C168,303.8,167.9,305,168.6,305.7L168.6,305.7z"/>
	</g>
</g>
<g>
	<g>
		<path class="st0" d="M178.7,300.6c-0.1,1.4,0.5,2.7,1.2,3.8c0.6,1.1,1.3,2.1,2.1,3c0.3,0.4,0.9,0.5,1.3,0.5c0.5,0,1-0.2,1.3-0.5
			c0.3-0.4,0.6-0.8,0.5-1.3c0-0.5-0.2-0.9-0.5-1.3c-0.1-0.1-0.2-0.2-0.3-0.3c0.1,0.1,0.2,0.3,0.3,0.4c-0.9-1.1-1.7-2.3-2.2-3.6
			c0.1,0.1,0.1,0.3,0.2,0.4c-0.1-0.3-0.2-0.7-0.3-1c0,0.2,0,0.3,0.1,0.5c0-0.2,0-0.4,0-0.6c0.1-1-0.9-1.9-1.9-1.9
			C179.5,298.8,178.7,299.6,178.7,300.6L178.7,300.6z"/>
	</g>
</g>
<g>
	<g>
		<path class="st0" d="M187,299.5c1,2,2,4,3.6,5.6c0.7,0.7,2,0.8,2.7,0c0.7-0.7,0.7-1.9,0-2.7c-0.3-0.3-0.6-0.7-0.9-1.1
			c0.1,0.1,0.2,0.3,0.3,0.4c-1-1.3-1.7-2.7-2.4-4.2c-0.2-0.4-0.7-0.7-1.1-0.9c-0.4-0.1-1-0.1-1.4,0.2c-0.4,0.3-0.8,0.6-0.9,1.1
			C186.7,298.5,186.8,299,187,299.5L187,299.5z"/>
	</g>
</g>
<g>
	<g>
		<path class="st0" d="M196.8,297.6c0.1,1.1,0.4,2.2,0.7,3.2c0.2,0.5,0.3,0.9,0.5,1.4c0.2,0.5,0.4,1.1,0.7,1.6
			c0.3,0.4,0.6,0.7,1.1,0.9c0.4,0.1,1,0.1,1.4-0.2c0.8-0.5,1.2-1.7,0.7-2.6c-0.1-0.1-0.2-0.3-0.2-0.5c0.1,0.1,0.1,0.3,0.2,0.4
			c-0.3-0.7-0.5-1.4-0.8-2.2c-0.3-0.7-0.5-1.5-0.6-2.2c0,0.2,0,0.3,0.1,0.5c0-0.1,0-0.3,0-0.4c0-0.5-0.2-1-0.5-1.3
			c-0.3-0.3-0.9-0.6-1.3-0.5C197.7,295.8,196.8,296.6,196.8,297.6L196.8,297.6z"/>
	</g>
</g>
<g>
	<g>
		<path class="st0" d="M205.3,297.1c-0.1,0.6-0.1,1.2-0.1,1.8c0.1,0.6,0.2,1.1,0.3,1.7c0.3,0.9,0.6,1.7,0.8,2.6
			c0.2,1,1.4,1.6,2.3,1.3c1-0.3,1.6-1.3,1.3-2.3c-0.3-1.3-0.9-2.5-1.1-3.9c0,0.2,0,0.3,0.1,0.5c-0.1-0.4-0.1-0.8,0-1.2
			c0,0.2,0,0.3-0.1,0.5c0,0,0-0.1,0-0.1c0.1-0.5,0.1-1-0.2-1.4c-0.2-0.4-0.7-0.8-1.1-0.9c-0.5-0.1-1-0.1-1.4,0.2
			C205.8,296.2,205.4,296.6,205.3,297.1L205.3,297.1z"/>
	</g>
</g>
<g>
	<g>
		<path class="st0" d="M213.8,294.7c-0.1,2.3-0.1,4.7,0.2,7c0.1,0.5,0.2,0.9,0.5,1.3c0.3,0.3,0.9,0.6,1.3,0.5c0.9,0,2-0.8,1.9-1.9
			c-0.2-2.3-0.3-4.7-0.2-7c0.1-1-0.9-1.9-1.9-1.9C214.6,292.9,213.8,293.7,213.8,294.7L213.8,294.7z"/>
	</g>
</g>
<g>
	<g>
		<path class="st0" d="M235.9,296.2c0,2.1,0,4.3,0,6.4c0,1,0.8,1.9,1.9,1.9c1,0,1.9-0.8,1.9-1.9c-0.1-2.1-0.1-4.3,0-6.4
			c0-1-0.9-1.9-1.9-1.9C236.8,294.4,235.9,295.2,235.9,296.2L235.9,296.2z"/>
	</g>
</g>
<g>
	<g>
		<path class="st0" d="M245.3,296.7c0,1.6,0,3.3,0,4.9c0,1,0.9,1.9,1.9,1.9c1,0,1.9-0.8,1.9-1.9c0-1.6,0-3.3,0-4.9
			c0-1-0.9-1.9-1.9-1.9C246.2,294.8,245.3,295.6,245.3,296.7L245.3,296.7z"/>
	</g>
</g>
<g>
	<g>
		<path class="st0" d="M256.4,297.5c0,2.2,0,4.5,0,6.7c0,1,0.9,1.9,1.9,1.9c1,0,1.9-0.8,1.9-1.9c0-2.2,0-4.5,0-6.7
			c0-1-0.9-1.9-1.9-1.9C257.3,295.7,256.4,296.5,256.4,297.5L256.4,297.5z"/>
	</g>
</g>
<g>
	<g>
		<path class="st0" d="M262.8,300.5c0,1.8,0,3.6,0,5.4c0,1,0.9,1.9,1.9,1.9c1,0,1.9-0.8,1.9-1.9c0-1.8,0-3.6,0-5.4
			c0-1-0.9-1.9-1.9-1.9C263.7,298.7,262.8,299.5,262.8,300.5L262.8,300.5z"/>
	</g>
</g>
<g>
	<g>
		<path class="st0" d="M271.4,303.3c0,1.6,0,3.2,0,4.8c0,1,0.9,1.9,1.9,1.9c1,0,1.9-0.8,1.9-1.9c0-1.6,0-3.2,0-4.8
			c0-1-0.9-1.9-1.9-1.9C272.3,301.5,271.4,302.3,271.4,303.3L271.4,303.3z"/>
	</g>
</g>
<g>
	<g>
		<path class="st0" d="M280.4,306.4c0.1,1.7,0,3.3,0,5c0,1,0.9,1.9,1.9,1.9c1.1,0,1.8-0.8,1.9-1.9c0.1-1.7,0.1-3.3,0-5
			c0-0.5-0.2-1-0.5-1.3c-0.3-0.3-0.9-0.6-1.3-0.5C281.3,304.5,280.4,305.3,280.4,306.4L280.4,306.4z"/>
	</g>
</g>
<g>
	<g>
		<path class="st0" d="M50.9,279.9c1.6,1.1,2.6,2.8,3.6,4.4c1.1,1.8,2.4,3.5,4,4.8c3.6,2.8,8.3,4.1,12.8,4.2c4.4,0.2,9.2-0.8,13-3.2
			c1.8-1.2,3.3-2.7,4.2-4.6c1-2.1,1.7-4.2,3-6.1c1.4-2-1.9-3.9-3.2-1.9c-1.2,1.8-2.1,3.8-2.9,5.8c-0.7,1.7-1.8,2.9-3.3,3.8
			c-3.4,2.1-7.7,2.7-11.6,2.4c-3.8-0.3-8.1-1.6-10.8-4.5c-2.5-2.7-3.7-6.2-6.9-8.4C50.8,275.3,48.9,278.5,50.9,279.9L50.9,279.9z"/>
	</g>
</g>
<g>
	<g>
		<path class="st0" d="M81,275.3c0.2,4.4,0.1,8.7-0.2,13.1c-0.1,1,0.9,1.9,1.9,1.9c1.1,0,1.8-0.9,1.9-1.9c0.3-4.4,0.4-8.7,0.2-13.1
			c0-1-0.8-1.9-1.9-1.9C81.9,273.4,80.9,274.3,81,275.3L81,275.3z"/>
	</g>
</g>
<g>
	<g>
		<path class="st0" d="M74.2,274.4c0,5.3,0,10.7,0.1,16c0,2.4,3.8,2.4,3.8,0c0-5.3,0-10.7-0.1-16C77.9,272,74.2,272,74.2,274.4
			L74.2,274.4z"/>
	</g>
</g>
<g>
	<g>
		<path class="st0" d="M67.3,273.1c0,6,0.5,11.9,1.4,17.9c0.2,1,1.4,1.6,2.3,1.3c1.1-0.3,1.5-1.3,1.3-2.3
			c-0.8-5.6-1.3-11.2-1.3-16.9C71.1,270.7,67.3,270.6,67.3,273.1L67.3,273.1z"/>
	</g>
</g>
<g>
	<g>
		<path class="st0" d="M61,274.9c0,5.2,0.6,10.4,1.8,15.5c0.2,1,1.4,1.6,2.3,1.3c1-0.3,1.5-1.3,1.3-2.3c-1.1-4.8-1.6-9.6-1.6-14.5
			C64.8,272.5,61,272.5,61,274.9L61,274.9z"/>
	</g>
</g>
</svg>
