<?xml version="1.0" encoding="utf-8"?>
<!-- Generator: Adobe Illustrator 27.2.0, SVG Export Plug-In . SVG Version: 6.00 Build 0)  -->
<svg version="1.1" id="talle_camisas_copy_xA0_Image_00000048479150078217529220000007679383014710885799_"
	 xmlns="http://www.w3.org/2000/svg" xmlns:xlink="http://www.w3.org/1999/xlink" x="0px" y="0px" viewBox="0 0 407.3 428.7"
	 style="enable-background:new 0 0 407.3 428.7;" xml:space="preserve">
<style type="text/css">
	.st0{fill:#12100B;}
</style>
<g>
	<g>
		<path class="st0" d="M149.2,50.8c3.8-3.9,8-7.5,12.4-10.8c2.2-1.7,4.4-3.3,6.6-4.9c1-0.7,2-1.5,3.1-2.1c1.1-0.6,2.2-0.7,3.4-0.8
			c11.9-0.8,23.7-1.9,35.5-3.5c6.6-0.9,13.2-1.9,19.8-3.1c-1-0.6-2.1-1.2-3.1-1.7c0.9,6.7-0.4,13.5-1.6,20
			c-1.2,6.6-2.6,13.2-4.4,19.7c-1.8,6.3-4.1,12.5-7,18.4c-2.9,5.7-6.2,11.1-9.8,16.3c-4.1,5.9-8.6,11.6-13,17.2
			c-0.8,1.1-1,2.5,0,3.5c0.9,0.9,2.7,1.1,3.5,0c8.3-10.5,16.6-21.1,22.8-32.9c6.5-12.3,10-25.8,12.6-39.4c1.5-8,3-16,1.9-24.1
			c-0.2-1.4-1.9-2-3.1-1.7c-11.8,2.1-23.7,3.8-35.7,4.9c-6,0.6-12,1.1-18.1,1.4c-1.3,0.1-2.7,0.2-4,0.6c-1.4,0.4-2.6,1.2-3.8,2
			c-2.3,1.6-4.5,3.3-6.8,5c-5.1,3.9-10.2,7.9-14.6,12.5C143.5,49.6,147,53.1,149.2,50.8L149.2,50.8z"/>
	</g>
</g>
<g>
	<g>
		<path class="st0" d="M191,115.9c-0.9,38.4-1.3,76.8-1.3,115.2c0,38.2,0.5,76.4,1.4,114.6c0.5,21.5,1.2,43.1,2,64.6
			c0.1,3.2,5.1,3.2,5,0c-1.4-38.4-2.4-76.8-3-115.2c-0.5-38.2-0.6-76.4-0.2-114.6c0.2-21.6,0.6-43.1,1.1-64.7
			C196.1,112.7,191.1,112.7,191,115.9L191,115.9z"/>
	</g>
</g>
<g>
	<g>
		<path class="st0" d="M144.9,49.3c-1.3,15.5,1.8,30.8,3.9,46c0.2,1.1,1.4,1.8,2.4,1.8c9.3,0.5,18.6,0.3,27.9-0.8
			c1.2-0.1,1.9-0.7,2.4-1.8c1.7-4.2,3.5-8.4,5.2-12.7c0.9-2.2,1.6-4.1,0.5-6.4c-0.8-1.7-2.4-3.1-3.5-4.5c-2.5-3.2-4.9-6.8-6.4-10.5
			c-1.7-4-0.1-8.1-0.1-12.2c-0.8,0.8-1.7,1.7-2.5,2.5c4.2-0.5,8.3,0,12.5,0.6c4.4,0.6,8.7,0.9,13.2,0.7c8.9-0.4,17.8-1,26.6-1.6
			c3.2-0.2,3.2-5.2,0-5c-8.9,0.5-17.7,1.1-26.6,1.6c-4.2,0.2-8.4-0.1-12.6-0.6c-4.3-0.6-8.7-1.2-13.1-0.7c-1.3,0.2-2.5,1-2.5,2.5
			c0,4.2-1.4,8.3-0.1,12.5c1.2,3.9,3.6,7.7,6,11c1.2,1.7,2.5,3.3,3.9,4.9c0.3,0.3,0.8,0.8,0.9,1.3c0.1,0.8-0.8,2.1-1.1,2.8
			c-1.7,4.1-3.4,8.3-5.1,12.4c0.8-0.6,1.6-1.2,2.4-1.8c-9.3,1.1-18.6,1.3-27.9,0.8c0.8,0.6,1.6,1.2,2.4,1.8c-2-14.8-5-29.7-3.7-44.7
			c0.1-1.3-1.2-2.5-2.5-2.5C145.9,46.8,145,47.9,144.9,49.3L144.9,49.3z"/>
	</g>
</g>
<g>
	<g>
		<path class="st0" d="M184,78.7c4,2.8,7.2,6.7,10.5,10.3c3.4,3.8,6.9,7.5,11.2,10.2c2.7,1.7,5.2-2.6,2.5-4.3
			c-4.1-2.6-7.4-6.3-10.7-10c-3.4-3.8-6.8-7.6-11-10.6c-1.1-0.8-2.8-0.2-3.4,0.9C182.4,76.5,182.9,77.9,184,78.7L184,78.7z"/>
	</g>
</g>
<g>
	<g>
		<path class="st0" d="M178,91.7c-0.6,2.4-1.3,4.9-1.9,7.3c-0.3,1.1,0.2,2.3,1.1,2.8c6.1,3.6,12.2,7.1,18.3,10.7
			c1.2,0.7,2.7,0.3,3.4-0.9c0.7-1.2,0.3-2.7-0.9-3.4c-6.1-3.6-12.2-7.1-18.3-10.7c0.4,0.9,0.8,1.9,1.1,2.8c0.6-2.4,1.3-4.9,1.9-7.3
			c0.3-1.3-0.4-2.7-1.7-3.1C179.8,89.6,178.4,90.4,178,91.7L178,91.7z"/>
	</g>
</g>
<g>
	<g>
		<path class="st0" d="M197.4,116.7c7.4-2,14.7-4.9,21.5-8.4c1.7-0.9,3.3-1.8,5-2.7c1.8-1,3.6-2.1,3.6-4.4c0-2-1-4.1-1.6-5.9
			c-0.6-2-1.2-4.1-1.8-6.1c-1,1-2.1,2.1-3.1,3.1c11.3,2.1,22.8,3.3,34.3,3.5c1.4,0,2.5-1.2,2.5-2.5c0.5-14.8,0.2-29.6-0.9-44.4
			c-0.1-1.3-1.1-2.5-2.5-2.5c-1.3,0-2.6,1.1-2.5,2.5c1.1,14.8,1.4,29.6,0.9,44.4c0.8-0.8,1.7-1.7,2.5-2.5c-11.1-0.2-22.1-1.3-33-3.3
			c-1.8-0.3-3.7,1.1-3.1,3.1c0.5,1.7,1,3.4,1.6,5.1c0.3,0.9,0.6,1.9,0.8,2.8c0.2,0.7,0.3,1.8,0.7,2.3c0.1,0.5,0.2,0.6,0.3,0
			c0.3-0.5,0.3-0.5-0.1-0.2c-0.4,0.1-0.8,0.5-1.2,0.7c-0.7,0.4-1.3,0.7-2,1.1c-1.5,0.8-3.1,1.6-4.6,2.4c-6,2.9-12.3,5.3-18.7,7
			C193,112.8,194.3,117.6,197.4,116.7L197.4,116.7z"/>
	</g>
</g>
<g>
	<g>
		<path class="st0" d="M228.4,30.7c8.3,8.1,17.6,15.2,27.6,21.1c10.4,6,21.6,10.5,32.6,15.3c6.2,2.7,12.4,5.5,18.4,8.8
			c2.8,1.5,5.4-2.8,2.5-4.3c-10.5-5.7-21.6-10.1-32.5-14.9c-10.7-4.7-21-10.1-30.4-17c-5.2-3.8-10.1-8-14.7-12.5
			C229.7,24.9,226.1,28.4,228.4,30.7L228.4,30.7z"/>
	</g>
</g>
<g>
	<g>
		<path class="st0" d="M306.7,74.2c15.9,22.6,32.6,44.6,50.2,65.9c4.4,5.4,8.9,10.7,13.5,16c1.8,2.1,3.8,4.2,4.3,7
			c0.5,2.6-0.4,5.3-1.7,7.6c-3,5.5-8.1,10.1-12.7,14.2c-4.8,4.3-9.9,8.1-15,12c-3.1,2.3-6.3,4.7-9.4,7c-2.7,2-5.4,4.4-8.6,5.5
			c-6.4,2.4-11.3-2.7-15.2-7.1c-2.2-2.4-5.7,1.1-3.5,3.5c4,4.5,9,9.3,15.4,9.2c6.9-0.1,12.6-5.5,17.8-9.4
			c11-8.2,22.7-16.2,31.6-26.8c4.1-4.9,7.9-11.3,6-17.9c-0.9-3.1-3-5.7-5.1-8.1c-2.4-2.8-4.7-5.5-7.1-8.3
			c-9.3-11-18.4-22.3-27.2-33.7c-10-12.9-19.6-26-29-39.3c-0.8-1.1-2.2-1.6-3.4-0.9C306.5,71.4,306,73.1,306.7,74.2L306.7,74.2z"/>
	</g>
</g>
<g>
	<g>
		<path class="st0" d="M312.4,203.8c0.5-8.4-0.7-16.6-1.8-24.9c-0.6-4.1-1.1-8.2-1.4-12.3c-0.3-4.2-0.3-8.3-0.4-12.5
			c-0.1-17.1-0.1-34.1,0.1-51.2c0.1-9.7,0.3-19.4,0.6-29.1c0.1-3.2-4.9-3.2-5,0c-0.6,17.1-0.7,34.3-0.7,51.5c0,8.5,0,17.1,0.1,25.6
			c0,8.4,0.3,16.6,1.4,24.9c1.2,9.3,2.9,18.6,2.3,28.1C307.2,207,312.2,207,312.4,203.8L312.4,203.8z"/>
	</g>
</g>
<g>
	<g>
		<path class="st0" d="M307.7,202.4c-1.7,27.9-2.6,55.9-2.7,83.9c0,28,0.8,56,2.4,83.9c0.4,7,0.9,14.1,1.4,21.1
			c0.2,3,0.9,6.2,0.5,9.2c-0.1,0.8-0.3,1.6-0.8,2.2c-0.8,0.8-2,0.8-3.1,0.9c-13.8,0.6-27.7,0.7-41.5,1.1
			c-27.9,0.7-55.9,1.6-83.8,2.1c-27.4,0.4-54.7-1.9-81.6-7.2c-3.3-0.7-6.7-1.4-10-2.1c-3.1-0.7-4.5,4.1-1.3,4.8
			c27.2,6.2,55.1,9.5,83.1,9.6c14.1,0.1,28.3-0.5,42.4-0.9c14.2-0.4,28.5-0.7,42.7-1.1c14.2-0.4,28.5-0.7,42.7-1.1
			c3.2-0.1,6.6,0.2,9.8-0.5c3-0.6,5.2-2.7,6-5.6c0.8-2.8,0.3-5.8,0.1-8.7c-0.3-3.6-0.5-7.1-0.8-10.7c-2-28.3-3-56.7-3.2-85.1
			c-0.2-28.5,0.5-57,2-85.4c0.2-3.5,0.4-6.9,0.6-10.4C312.9,199.2,307.9,199.2,307.7,202.4L307.7,202.4z"/>
	</g>
</g>
<g>
	<g>
		<path class="st0" d="M90.7,397.9c-4.5-24.3-5.6-49.2-3.5-73.8c0.5-6.2,1.3-12.4,1.7-18.6c0.4-6.3,0.5-12.6,0.5-18.9
			c-0.1-12.6-0.5-25.1-0.1-37.6c0.4-14.1,1.5-28.2,3.2-42.2c0.2-1.3-1.3-2.5-2.5-2.5c-1.5,0-2.3,1.2-2.5,2.5
			C86,219.4,85,232,84.5,244.6c-0.5,12.6-0.3,25.2-0.1,37.8c0.1,6.4,0.1,12.8-0.2,19.1c-0.3,6.2-1,12.4-1.6,18.6
			c-1.2,12.4-1.7,24.9-1.2,37.4c0.5,14,2,27.9,4.5,41.6c0.2,1.3,1.9,2.1,3.1,1.7C90.4,400.6,91,399.2,90.7,397.9L90.7,397.9z"/>
	</g>
</g>
<g>
	<g>
		<path class="st0" d="M92.6,206.7c1.9-17.6,3.4-35.2,4.5-52.9c1.1-17,2.2-34.1,0.9-51.2c-0.7-9.5-2.2-19-4.9-28.2
			c-0.9-3.1-5.7-1.8-4.8,1.3c4.6,16.1,5.6,32.8,5.3,49.5c-0.4,17.3-1.7,34.5-3.1,51.8c-0.8,9.9-1.8,19.8-2.8,29.6
			c-0.1,1.3,1.3,2.5,2.5,2.5C91.6,209.2,92.5,208.1,92.6,206.7L92.6,206.7z"/>
	</g>
</g>
<g>
	<g>
		<path class="st0" d="M146.7,46.7c-9.6-1.2-18.5,4.7-26.6,9.1c-9,4.8-17.9,9.6-26.9,14.5c-4.2,2.3-7.9,5-11.1,8.7
			c-3.1,3.6-6.1,7.1-9.4,10.5c-6.8,6.9-13.3,13.8-19.3,21.3c-5.9,7.5-11.5,15.4-17,23.2c-2.9,4.1-5.7,8.2-8.5,12.4
			c-2.9,4.2-5.9,8.3-8.7,12.5c-1.3,2.1-2.1,4.5-1.2,6.9c0.8,2.2,2.5,4.1,3.9,6c3,4,6.1,7.9,9.3,11.7c5.7,6.9,11.5,13.8,17.9,20.1
			c6.1,5.9,13,11.2,20.8,14.6c2.2,0.9,4.7,2.1,7,0.8c1.9-1.1,3.4-3.3,4.7-5c2.9-3.6,5.6-7.4,7.9-11.4c1.1-2,2.2-4,3.2-6.1
			c0.6-1.2,0.3-2.7-0.9-3.4c-1.1-0.6-2.8-0.3-3.4,0.9c-1.9,3.9-4,7.7-6.5,11.3c-1.2,1.7-2.4,3.4-3.7,5c-0.7,0.9-1.4,1.7-2.1,2.5
			c-0.3,0.4-0.7,0.8-1,1.2c-0.1,0.1-0.3,0.3-0.4,0.4c-0.2,0.1-0.3,0.2-0.2,0.2c-0.7,0-1.9-0.7-2.5-0.9c-0.9-0.4-1.8-0.8-2.7-1.3
			c-1.7-0.9-3.4-1.9-5.1-2.9c-3.3-2.1-6.4-4.6-9.3-7.3c-6.1-5.6-11.5-12-16.9-18.3c-3-3.6-6-7.2-8.9-10.9c-1.4-1.8-2.8-3.6-4.1-5.4
			c-1-1.3-2.8-3-2.1-4.8c0.8-2,2.5-3.9,3.7-5.7c1.4-2,2.7-4,4.1-5.9c2.8-4,5.6-8.1,8.4-12.1c5.1-7.4,10.3-14.8,15.7-21.9
			c5.5-7.2,11.4-14,17.7-20.3c3.2-3.2,6.5-6.4,9.4-9.8c2.8-3.2,5.3-6.9,8.8-9.3c3.8-2.7,8.1-4.7,12.2-6.9c4.3-2.3,8.5-4.6,12.8-6.9
			c4.2-2.3,8.5-4.6,12.7-6.9c3.8-2,7.7-4,12-4.9c2-0.4,4.1-0.5,6.1-0.2c1.3,0.2,2.5-1.3,2.5-2.5C149.2,47.7,148.1,46.9,146.7,46.7
			L146.7,46.7z"/>
	</g>
</g>
<g>
	<g>
		<path class="st0" d="M226.6,141.9c18.9,1.7,37.9,2.4,56.9,2.2c-0.8-0.8-1.7-1.7-2.5-2.5c-0.5,11.8,0,23.5,0.8,35.3
			c0.4,5.3,0.6,10.8-1.2,15.9c-1.3,3.6-3.9,7.2-7.5,8.8c-2.4,1-5.1,1-7.7,1c-2.9-0.1-5.8-0.1-8.7-0.2c-5.6-0.1-11.2-0.1-16.6-1.8
			c-4.2-1.3-8.2-3.8-10.4-7.7c-2.3-4.1-2.6-9.1-2.6-13.7c-0.2-13.3-0.2-26.6-0.3-39.8c-0.8,0.8-1.7,1.7-2.5,2.5c1.4,0,2.8,0,4.2,0
			c3.2,0,3.2-5,0-5c-1.4,0-2.8,0-4.2,0c-1.3,0-2.5,1.2-2.5,2.5c0.1,12.7,0.1,25.5,0.2,38.2c0,5.2,0.2,10.6,2.2,15.5
			c2.1,5,6,8.8,10.9,11c5.5,2.5,11.4,3.1,17.3,3.3c3.1,0.1,6.1,0.2,9.2,0.2c3,0.1,6,0.3,8.9-0.1c5.3-0.7,9.6-3.7,12.5-8.2
			c3-4.6,4-10.2,4.1-15.6c0.1-6.8-0.8-13.7-1.1-20.5c-0.3-7.1-0.2-14.3,0-21.4c0.1-1.3-1.2-2.5-2.5-2.5c-19,0.2-38-0.5-56.9-2.2
			c-1.3-0.1-2.5,1.2-2.5,2.5C224.1,140.9,225.2,141.8,226.6,141.9L226.6,141.9z"/>
	</g>
</g>
<g>
	<g>
		<path class="st0" d="M226,157.5c18.4,0.2,36.8,0.4,55.3,0.6c3.2,0,3.2-5,0-5c-18.4-0.2-36.8-0.4-55.3-0.6
			C222.8,152.5,222.8,157.5,226,157.5L226,157.5z"/>
	</g>
</g>
</svg>
